<?xml version="1.0" encoding="iso-8859-1"?>
<!-- Generator: Adobe Illustrator 16.0.0, SVG Export Plug-In . SVG Version: 6.00 Build 0)  -->
<!DOCTYPE svg PUBLIC "-//W3C//DTD SVG 1.1//EN" "http://www.w3.org/Graphics/SVG/1.1/DTD/svg11.dtd">
<svg version="1.1" id="Capa_1" xmlns="http://www.w3.org/2000/svg" xmlns:xlink="http://www.w3.org/1999/xlink" x="0px" y="0px"
	 width="375px" height="685px" viewBox="0 0 375 685" style="enable-background:new 0 0 375 685;" xml:space="preserve">
<g>
	<defs>
		<rect id="SVGID_67_" y="0.001" width="375" height="684.999"/>
	</defs>
	<clipPath id="SVGID_2_">
		<use xlink:href="#SVGID_67_"  style="overflow:visible;"/>
	</clipPath>
	
		<radialGradient id="SVGID_3_" cx="-4487.4575" cy="684.498" r="1.0005" gradientTransform="matrix(276.1001 0 0 -276.1001 1239175 189332.5313)" gradientUnits="userSpaceOnUse">
		<stop  offset="0" style="stop-color:#FFFFFF"/>
		<stop  offset="1" style="stop-color:#FFFFFF"/>
	</radialGradient>
	<rect y="0.001" style="clip-path:url(#SVGID_2_);fill:url(#SVGID_3_);" width="375" height="684.999"/>
</g>
<g>
	<defs>
		<rect id="SVGID_70_" y="0.001" width="375" height="684.999"/>
	</defs>
	<clipPath id="SVGID_5_">
		<use xlink:href="#SVGID_70_"  style="overflow:visible;"/>
	</clipPath>
	<path style="clip-path:url(#SVGID_5_);fill:#EC983D;" d="M174.751,28.206h10.438c2.738,0,5.17,0.564,7.293,1.695
		s3.774,2.695,4.956,4.693c1.179,1.996,1.771,4.264,1.771,6.801c0,2.539-0.592,4.805-1.771,6.803
		c-1.182,1.996-2.833,3.561-4.956,4.691s-4.555,1.695-7.293,1.695h-10.438V28.206z M185.039,52.853c2.436,0,4.584-0.484,6.444-1.451
		c1.858-0.967,3.29-2.318,4.296-4.051c1.004-1.734,1.507-3.719,1.507-5.955s-0.503-4.221-1.507-5.953
		c-1.006-1.734-2.438-3.084-4.296-4.051c-1.86-0.969-4.009-1.451-6.444-1.451h-8.366v22.912H185.039z"/>
	<rect x="220.952" y="28.206" style="clip-path:url(#SVGID_5_);fill:#EC983D;" width="1.922" height="26.379"/>
	<path style="clip-path:url(#SVGID_5_);fill:#EC983D;" d="M263.459,47.161h-15.3l-3.353,7.424h-2.073l12.133-26.379h1.923
		l12.134,26.379h-2.071L263.459,47.161z M262.743,45.54l-6.934-15.223l-6.896,15.223H262.743z"/>
	<path style="clip-path:url(#SVGID_5_);fill:#EC983D;" d="M289.894,53.774c-1.746-0.664-3.108-1.525-4.089-2.58l0.867-1.434
		c0.929,0.98,2.179,1.779,3.75,2.395c1.569,0.615,3.222,0.922,4.955,0.922c2.512,0,4.409-0.477,5.69-1.432
		c1.281-0.953,1.922-2.197,1.922-3.73c0-1.18-0.34-2.123-1.018-2.826c-0.679-0.703-1.52-1.244-2.524-1.621s-2.362-0.766-4.07-1.168
		c-1.935-0.477-3.486-0.941-4.654-1.395c-1.168-0.451-2.16-1.148-2.978-2.09c-0.816-0.943-1.224-2.205-1.224-3.789
		c0-1.281,0.339-2.455,1.018-3.523c0.678-1.066,1.714-1.916,3.108-2.543s3.133-0.941,5.219-0.941c1.458,0,2.889,0.213,4.297,0.641
		c1.407,0.426,2.625,1.004,3.655,1.732l-0.717,1.545c-1.056-0.729-2.217-1.281-3.485-1.658c-1.27-0.377-2.52-0.564-3.75-0.564
		c-2.437,0-4.283,0.49-5.538,1.471c-1.257,0.979-1.885,2.248-1.885,3.805c0,1.182,0.339,2.123,1.018,2.826
		c0.678,0.705,1.52,1.244,2.524,1.621s2.374,0.777,4.107,1.205c1.935,0.479,3.479,0.943,4.635,1.395
		c1.154,0.453,2.143,1.137,2.958,2.053c0.816,0.918,1.226,2.156,1.226,3.713c0,1.281-0.346,2.449-1.036,3.506
		c-0.692,1.055-1.752,1.896-3.185,2.523c-1.432,0.629-3.191,0.943-5.275,0.943C293.48,54.774,291.64,54.442,289.894,53.774"/>
	<path style="clip-path:url(#SVGID_5_);fill:#8D2D81;" d="M176.897,89.112c-2.041-0.592-3.679-1.361-4.917-2.311l2.172-4.818
		c1.185,0.869,2.595,1.566,4.226,2.094c1.633,0.527,3.265,0.789,4.897,0.789c1.815,0,3.159-0.27,4.028-0.809
		s1.303-1.258,1.303-2.152c0-0.658-0.257-1.205-0.77-1.639c-0.514-0.434-1.172-0.783-1.976-1.047
		c-0.803-0.262-1.889-0.553-3.257-0.869c-2.107-0.5-3.831-1-5.174-1.5c-1.344-0.5-2.494-1.303-3.455-2.41
		c-0.962-1.105-1.441-2.58-1.441-4.422c0-1.607,0.435-3.061,1.303-4.365c0.869-1.303,2.178-2.336,3.93-3.1
		c1.75-0.762,3.89-1.145,6.418-1.145c1.763,0,3.487,0.211,5.172,0.633c1.685,0.42,3.16,1.025,4.424,1.814l-1.975,4.859
		c-2.554-1.449-5.109-2.172-7.661-2.172c-1.791,0-3.114,0.289-3.97,0.867c-0.855,0.58-1.282,1.344-1.282,2.291
		s0.493,1.652,1.479,2.113c0.988,0.461,2.496,0.914,4.522,1.361c2.106,0.5,3.831,1.002,5.173,1.502
		c1.343,0.5,2.495,1.289,3.456,2.369c0.96,1.08,1.441,2.541,1.441,4.383c0,1.58-0.441,3.021-1.323,4.324
		c-0.882,1.305-2.205,2.338-3.969,3.1c-1.765,0.764-3.91,1.146-6.438,1.146C181.05,90.001,178.938,89.704,176.897,89.112"/>
	<path style="clip-path:url(#SVGID_5_);fill:#8D2D81;" d="M223.358,77.659c0.895,1.172,1.342,2.613,1.342,4.324
		c0,2.422-0.94,4.285-2.822,5.588c-1.884,1.305-4.629,1.955-8.234,1.955h-14.297V61.882h13.508c3.369,0,5.956,0.646,7.758,1.936
		c1.806,1.291,2.706,3.041,2.706,5.252c0,1.344-0.322,2.541-0.967,3.596c-0.646,1.053-1.547,1.881-2.705,2.486
		C221.226,75.651,222.462,76.487,223.358,77.659 M205.706,66.7v6.518h6.357c1.58,0,2.778-0.277,3.594-0.83
		c0.816-0.553,1.225-1.369,1.225-2.449c0-1.078-0.408-1.889-1.225-2.428c-0.815-0.539-2.014-0.811-3.594-0.811H205.706z
		 M216.98,83.88c0.855-0.555,1.284-1.408,1.284-2.568c0-2.289-1.699-3.434-5.095-3.434h-7.464v6.832h7.464
		C214.854,84.71,216.124,84.433,216.98,83.88"/>
	<path style="clip-path:url(#SVGID_5_);fill:#8D2D81;" d="M247.902,63.106c1.802,0.818,3.191,1.977,4.166,3.477
		c0.974,1.5,1.461,3.277,1.461,5.33c0,2.027-0.487,3.799-1.461,5.313c-0.975,1.514-2.364,2.672-4.166,3.475
		c-1.804,0.805-3.93,1.205-6.378,1.205h-5.569v7.621h-6.396V61.884h11.966C243.973,61.884,246.099,62.292,247.902,63.106
		 M245.552,75.448c1-0.83,1.5-2.008,1.5-3.535c0-1.553-0.5-2.744-1.5-3.572c-1.002-0.83-2.462-1.246-4.384-1.246h-5.213v9.598h5.213
		C243.09,76.692,244.55,76.278,245.552,75.448"/>
	<path style="clip-path:url(#SVGID_5_);fill:#8D2D81;" d="M274.616,83.603h-12.833l-2.45,5.924h-6.554l12.319-27.645h6.319
		l12.361,27.645h-6.712L274.616,83.603z M272.603,78.745l-4.383-10.582l-4.384,10.582H272.603z"/>
	<polygon style="clip-path:url(#SVGID_5_);fill:#8D2D81;" points="297.758,79.733 297.758,89.526 291.361,89.526 291.361,79.653 
		280.658,61.882 287.45,61.882 294.836,74.165 302.221,61.882 308.5,61.882 	"/>
	<path style="clip-path:url(#SVGID_5_);fill-rule:evenodd;clip-rule:evenodd;fill:#FFFFFF;" d="M106.352,98.528
		c-21.754,0-39.452-17.648-39.452-39.344c0-21.693,17.698-39.344,39.452-39.344c7.931,0,15.56,2.336,22.103,6.764
		c1.633,0.49,3.176,1.346,4.564,2.516c2.08-2.23,4.889-3.875,8.25-4.781c0.313-0.086,0.629-0.127,0.939-0.127
		c1.576,0,3.021,1.043,3.466,2.633c1.126,4.031,0.655,8.131-1.19,11.609c1.178,0.537,2.278,1.219,3.283,2.031
		c1.443,1.17,1.759,3.246,0.73,4.791c-1.047,1.576-2.39,2.939-3.959,4.035c0.84,3.223,1.264,6.531,1.264,9.873
		C145.802,80.88,128.104,98.528,106.352,98.528"/>
	<path style="clip-path:url(#SVGID_5_);fill:#FFFFFF;" d="M106.352,23.442c7.657,0,14.747,2.4,20.571,6.479
		c2.682,0.619,4.964,2.658,6.498,5.205c-0.059,0.15-0.094,0.314-0.147,0.469l0.001,0.002c0.053-0.154,0.09-0.318,0.148-0.469
		c1.371-3.523,4.39-6.129,8.783-7.314c1.41,5.049-0.429,9.834-4.082,12.783c2.642,0.111,5.256,0.967,7.375,2.686
		c-1.325,1.994-3.174,3.418-5.236,4.311c1.25,3.637,1.939,7.533,1.939,11.592c0,19.742-16.053,35.744-35.851,35.744
		c-19.799,0-35.853-16.002-35.853-35.744C70.499,39.444,86.55,23.442,106.352,23.442 M106.352,16.241
		c-23.739,0-43.052,19.266-43.052,42.943c0,23.68,19.313,42.943,43.052,42.943c23.738,0,43.05-19.264,43.05-42.943
		c0-2.859-0.285-5.697-0.848-8.484c1.115-1.02,2.104-2.17,2.941-3.428c2.058-3.094,1.424-7.244-1.461-9.582
		c-0.33-0.268-0.668-0.525-1.015-0.768c1.091-3.484,1.17-7.289,0.122-11.047c-0.889-3.18-3.779-5.264-6.932-5.264
		c-0.62,0-1.252,0.08-1.881,0.25c-2.896,0.783-5.459,2.029-7.61,3.676c-0.862-0.486-1.759-0.893-2.683-1.207
		C122.991,18.688,114.831,16.241,106.352,16.241"/>
	<path style="clip-path:url(#SVGID_5_);fill-rule:evenodd;clip-rule:evenodd;fill:#2373B6;" d="M106.352,23.442
		c19.802,0,35.851,16.002,35.851,35.742s-16.053,35.742-35.851,35.742c-19.799,0-35.853-16.002-35.853-35.742
		S86.55,23.442,106.352,23.442"/>
	<path style="clip-path:url(#SVGID_5_);fill-rule:evenodd;clip-rule:evenodd;fill:#FFFFFF;" d="M104.661,51.233v4.006H86.899
		c-1.865,0-1.737,2.268,0,2.268h13.918c3.177,0.123,4.488,1.605,4.488,5.055s-1.143,5.088-4.488,5.346H81.574v-4.07h18.471
		c1.956,0,1.826-2.199,0-2.199h-13.53c-3.235,0-4.938-1.867-4.938-5.189c0-3.803,1.899-5.213,4.938-5.213L104.661,51.233z"/>
	<path style="clip-path:url(#SVGID_5_);fill-rule:evenodd;clip-rule:evenodd;fill:#FFFFFF;" d="M110.591,55.257v8.607h13.701
		c2.327,0,2.853-1.266,2.853-4.303c0-3.104-0.88-4.307-3.404-4.307L110.591,55.257z M106.069,44.88h4.457v6.4h13.609
		c5.008,0,7.273,2.643,7.273,7.887c0,5.811-1.406,8.74-7.047,8.74h-18.293V44.88z"/>
	<polygon style="clip-path:url(#SVGID_5_);fill-rule:evenodd;clip-rule:evenodd;fill:#FFFFFF;" points="82.612,49.108 
		82.335,49.108 82.335,47.05 83.765,47.05 83.765,47.296 82.612,47.296 82.612,47.927 83.626,47.927 83.626,48.175 82.612,48.175 	
		"/>
	<path style="clip-path:url(#SVGID_5_);fill-rule:evenodd;clip-rule:evenodd;fill:#FFFFFF;" d="M85.726,48.263l-0.303-0.904
		l-0.332,0.904H85.726z M85.007,48.509l-0.217,0.6h-0.287l0.776-2.059h0.317l0.746,2.059h-0.305l-0.205-0.6H85.007z"/>
	<path style="clip-path:url(#SVGID_5_);fill-rule:evenodd;clip-rule:evenodd;fill:#FFFFFF;" d="M87.704,47.987h0.647
		c0.052,0,0.103-0.004,0.153-0.012c0.048-0.008,0.093-0.025,0.133-0.053c0.041-0.027,0.074-0.064,0.096-0.107
		c0.053-0.119,0.053-0.254,0-0.373c-0.021-0.041-0.055-0.078-0.094-0.104c-0.037-0.023-0.078-0.037-0.121-0.043
		c-0.038-0.002-0.077-0.002-0.115,0h-0.699v0.699V47.987z M87.704,49.108h-0.277V47.05h0.953c0.084,0,0.168,0.01,0.248,0.025
		c0.078,0.016,0.152,0.047,0.219,0.088c0.064,0.043,0.117,0.102,0.154,0.17c0.043,0.084,0.063,0.176,0.06,0.27
		c0.001,0.066-0.007,0.131-0.024,0.195c-0.028,0.092-0.086,0.174-0.162,0.23c-0.032,0.025-0.066,0.047-0.102,0.068
		c0.03,0.012,0.059,0.025,0.086,0.041c0.03,0.016,0.057,0.037,0.078,0.063c0.025,0.033,0.044,0.07,0.057,0.111
		c0.016,0.059,0.023,0.117,0.025,0.178l0.02,0.373c-0.002,0.025-0.002,0.051,0,0.074c0.002,0.02,0.008,0.037,0.016,0.053
		c0.007,0.018,0.02,0.031,0.031,0.043c0.017,0.016,0.033,0.027,0.053,0.035v0.047h-0.342c-0.012-0.039-0.021-0.08-0.025-0.121
		c-0.008-0.051-0.012-0.102-0.016-0.154c-0.004-0.051-0.004-0.102,0-0.145v-0.098c0-0.043-0.004-0.086-0.01-0.129
		c-0.008-0.043-0.024-0.082-0.049-0.117c-0.029-0.039-0.068-0.068-0.113-0.086c-0.063-0.025-0.129-0.035-0.196-0.033h-0.683v0.883
		V49.108z"/>
	<polygon style="clip-path:url(#SVGID_5_);fill-rule:evenodd;clip-rule:evenodd;fill:#FFFFFF;" points="91.972,49.108 
		91.972,47.894 91.972,47.813 91.972,47.685 91.972,47.53 91.972,47.38 91.39,49.108 91.112,49.108 90.532,47.382 90.532,47.534 
		90.532,47.687 90.532,47.813 90.532,47.894 90.532,49.108 90.263,49.108 90.263,47.05 90.662,47.05 91.252,48.792 91.839,47.05 
		92.235,47.05 92.235,49.108 	"/>
	<path style="clip-path:url(#SVGID_5_);fill-rule:evenodd;clip-rule:evenodd;fill:#FFFFFF;" d="M94.524,48.263l-0.306-0.904
		l-0.331,0.904H94.524z M93.805,48.509l-0.216,0.6h-0.287l0.775-2.059h0.317l0.735,2.059h-0.305l-0.207-0.6H93.805z"/>
	<path style="clip-path:url(#SVGID_5_);fill-rule:evenodd;clip-rule:evenodd;fill:#FFFFFF;" d="M97.565,47.669
		c-0.016-0.078-0.047-0.154-0.096-0.219c-0.039-0.053-0.09-0.098-0.147-0.131c-0.056-0.029-0.116-0.051-0.179-0.061
		c-0.055-0.01-0.109-0.016-0.164-0.016c-0.09,0-0.18,0.016-0.262,0.051s-0.155,0.088-0.215,0.154
		c-0.064,0.074-0.115,0.16-0.146,0.256c-0.038,0.113-0.056,0.236-0.054,0.357c-0.002,0.113,0.011,0.229,0.033,0.338
		c0.021,0.1,0.06,0.191,0.115,0.273c0.055,0.076,0.129,0.139,0.213,0.18c0.102,0.045,0.213,0.068,0.323,0.066
		c0.054-0.002,0.104-0.008,0.155-0.021c0.064-0.016,0.126-0.045,0.179-0.084c0.063-0.049,0.117-0.109,0.157-0.178
		c0.053-0.09,0.089-0.189,0.105-0.291h0.271c-0.015,0.115-0.048,0.225-0.099,0.33c-0.039,0.082-0.09,0.158-0.153,0.225
		c-0.052,0.057-0.113,0.105-0.181,0.143c-0.057,0.031-0.116,0.057-0.18,0.078c-0.053,0.016-0.109,0.025-0.164,0.031h-0.113
		c-0.115,0-0.232-0.021-0.34-0.061c-0.113-0.041-0.215-0.105-0.299-0.191c-0.094-0.096-0.166-0.211-0.211-0.338
		c-0.056-0.162-0.084-0.334-0.078-0.506c-0.002-0.146,0.021-0.293,0.066-0.434c0.04-0.123,0.105-0.238,0.189-0.338
		c0.084-0.096,0.188-0.172,0.305-0.221c0.24-0.098,0.509-0.105,0.755-0.021c0.094,0.035,0.182,0.086,0.257,0.15
		c0.068,0.061,0.125,0.133,0.165,0.215c0.04,0.078,0.065,0.164,0.076,0.252L97.565,47.669z"/>
	
		<rect x="99.04" y="47.05" style="clip-path:url(#SVGID_5_);fill-rule:evenodd;clip-rule:evenodd;fill:#FFFFFF;" width="0.163" height="2.059"/>
	<path style="clip-path:url(#SVGID_5_);fill-rule:evenodd;clip-rule:evenodd;fill:#FFFFFF;" d="M101.651,48.263l-0.305-0.904
		l-0.33,0.904H101.651z M100.933,48.509l-0.229,0.6h-0.288l0.777-2.059h0.316l0.747,2.059h-0.295l-0.205-0.6H100.933z"/>
	<path style="clip-path:url(#SVGID_5_);fill-rule:evenodd;clip-rule:evenodd;fill:#FFFFFF;" d="M104.522,47.653
		c0-0.066-0.015-0.135-0.045-0.193c-0.029-0.053-0.07-0.098-0.119-0.131c-0.049-0.031-0.105-0.055-0.162-0.066
		c-0.06-0.014-0.119-0.021-0.18-0.021c-0.051,0.002-0.099,0.006-0.147,0.014c-0.054,0.008-0.107,0.025-0.155,0.053
		c-0.049,0.025-0.089,0.063-0.12,0.107c-0.034,0.055-0.05,0.117-0.049,0.18c-0.001,0.039,0.005,0.078,0.022,0.111
		c0.013,0.029,0.031,0.055,0.056,0.076c0.022,0.02,0.048,0.035,0.077,0.045c0.029,0.014,0.059,0.023,0.09,0.029l0.589,0.135
		c0.062,0.016,0.123,0.037,0.181,0.066c0.113,0.055,0.201,0.152,0.245,0.27c0.026,0.068,0.038,0.141,0.036,0.215
		c0.005,0.107-0.021,0.213-0.074,0.305c-0.05,0.078-0.117,0.143-0.197,0.189c-0.082,0.049-0.17,0.08-0.262,0.1
		c-0.172,0.035-0.349,0.039-0.521,0.01c-0.061-0.01-0.122-0.025-0.18-0.049c-0.043-0.016-0.084-0.037-0.121-0.064
		c-0.028-0.02-0.057-0.043-0.082-0.066c-0.082-0.064-0.145-0.148-0.181-0.246c-0.026-0.09-0.04-0.182-0.038-0.275h0.262
		c-0.004,0.082,0.015,0.162,0.053,0.234c0.031,0.057,0.076,0.107,0.131,0.146c0.057,0.037,0.117,0.064,0.182,0.078
		c0.065,0.016,0.133,0.023,0.201,0.023c0.057,0,0.113-0.004,0.17-0.012c0.062-0.008,0.121-0.025,0.178-0.051
		c0.055-0.023,0.102-0.059,0.14-0.104c0.039-0.051,0.06-0.115,0.056-0.18c0.002-0.047-0.007-0.092-0.021-0.137
		c-0.016-0.037-0.04-0.072-0.072-0.096c-0.041-0.031-0.086-0.055-0.135-0.07c-0.057-0.02-0.127-0.041-0.213-0.061l-0.422-0.098
		c-0.043-0.01-0.084-0.023-0.125-0.039c-0.053-0.02-0.102-0.047-0.145-0.082c-0.048-0.039-0.088-0.088-0.119-0.143
		c-0.035-0.068-0.053-0.145-0.05-0.221c-0.001-0.08,0.013-0.16,0.04-0.236c0.025-0.076,0.068-0.145,0.125-0.203
		c0.063-0.063,0.139-0.111,0.223-0.145c0.102-0.037,0.211-0.057,0.32-0.053c0.146-0.006,0.291,0.018,0.428,0.07
		c0.094,0.039,0.176,0.102,0.24,0.178c0.053,0.063,0.089,0.137,0.107,0.217c0.015,0.064,0.024,0.131,0.031,0.197L104.522,47.653z"/>
	<path style="clip-path:url(#SVGID_5_);fill-rule:evenodd;clip-rule:evenodd;fill:#FFFFFF;" d="M85.896,70.681
		c-0.002-0.111-0.03-0.223-0.085-0.32c-0.049-0.082-0.115-0.154-0.193-0.207c-0.08-0.053-0.168-0.09-0.262-0.111
		c-0.091-0.02-0.186-0.031-0.279-0.031c-0.08,0.002-0.16,0.008-0.238,0.021c-0.086,0.014-0.17,0.041-0.246,0.082
		c-0.078,0.043-0.146,0.105-0.194,0.18c-0.058,0.09-0.084,0.195-0.079,0.301c-0.002,0.063,0.01,0.123,0.034,0.18
		c0.022,0.045,0.052,0.086,0.09,0.119c0.037,0.033,0.079,0.059,0.124,0.076c0.045,0.02,0.094,0.035,0.143,0.047l0.943,0.215
		c0.104,0.023,0.203,0.059,0.299,0.105c0.182,0.09,0.322,0.242,0.394,0.432c0.041,0.111,0.06,0.227,0.058,0.344
		c0.006,0.172-0.035,0.34-0.123,0.486c-0.078,0.125-0.185,0.229-0.313,0.305c-0.129,0.076-0.271,0.129-0.418,0.158
		c-0.275,0.055-0.557,0.061-0.834,0.016c-0.094-0.016-0.189-0.043-0.279-0.08c-0.068-0.025-0.134-0.061-0.193-0.104
		c-0.047-0.031-0.091-0.066-0.133-0.105c-0.125-0.105-0.219-0.24-0.273-0.395c-0.041-0.143-0.063-0.291-0.063-0.439H84.2
		c-0.006,0.129,0.022,0.258,0.08,0.373c0.055,0.09,0.129,0.166,0.215,0.225c0.09,0.061,0.188,0.104,0.293,0.127
		c0.104,0.023,0.213,0.037,0.32,0.037c0.092-0.002,0.182-0.01,0.271-0.021c0.099-0.014,0.192-0.041,0.283-0.082
		c0.086-0.037,0.16-0.094,0.221-0.166c0.063-0.082,0.095-0.184,0.09-0.287c0.002-0.074-0.01-0.146-0.034-0.217
		c-0.022-0.061-0.063-0.115-0.114-0.154c-0.066-0.049-0.139-0.086-0.217-0.111c-0.092-0.033-0.204-0.066-0.338-0.1l-0.676-0.156
		c-0.069-0.016-0.137-0.037-0.203-0.063c-0.083-0.031-0.161-0.074-0.23-0.131c-0.076-0.064-0.142-0.141-0.19-0.229
		c-0.058-0.109-0.085-0.232-0.08-0.357c0-0.127,0.021-0.256,0.063-0.377c0.047-0.119,0.117-0.229,0.209-0.316
		c0.103-0.102,0.225-0.18,0.359-0.229c0.165-0.063,0.34-0.094,0.516-0.088c0.234-0.012,0.467,0.027,0.686,0.111
		c0.148,0.061,0.279,0.154,0.385,0.277c0.083,0.098,0.143,0.217,0.171,0.344c0.024,0.105,0.04,0.211,0.048,0.318L85.896,70.681z"/>
	<path style="clip-path:url(#SVGID_5_);fill-rule:evenodd;clip-rule:evenodd;fill:#FFFFFF;" d="M90.191,71.655l-0.487-1.449h-0.01
		l-0.529,1.449H90.191z M89.026,72.05l-0.345,0.959H88.22l1.244-3.293h0.506l1.205,3.295h-0.487l-0.327-0.959L89.026,72.05z"/>
	<polygon style="clip-path:url(#SVGID_5_);fill-rule:evenodd;clip-rule:evenodd;fill:#FFFFFF;" points="93.651,72.616 
		95.325,72.616 95.325,73.011 93.204,73.011 93.204,69.718 93.651,69.718 	"/>
	<path style="clip-path:url(#SVGID_5_);fill-rule:evenodd;clip-rule:evenodd;fill:#FFFFFF;" d="M99.714,70.708
		c-0.021-0.129-0.072-0.252-0.15-0.357c-0.064-0.086-0.146-0.156-0.238-0.209c-0.084-0.049-0.176-0.08-0.273-0.1
		c-0.086-0.016-0.174-0.023-0.262-0.023c-0.145-0.002-0.287,0.025-0.421,0.082c-0.132,0.055-0.248,0.139-0.343,0.244
		c-0.104,0.119-0.184,0.26-0.232,0.41c-0.059,0.184-0.088,0.377-0.084,0.572c-0.001,0.18,0.018,0.359,0.055,0.537
		c0.031,0.156,0.092,0.303,0.18,0.436c0.088,0.121,0.203,0.223,0.338,0.287c0.162,0.076,0.34,0.113,0.518,0.107
		c0.084-0.002,0.168-0.014,0.249-0.035c0.099-0.025,0.19-0.07,0.272-0.131c0.101-0.074,0.187-0.166,0.252-0.271
		c0.086-0.143,0.145-0.301,0.172-0.467h0.433c-0.024,0.184-0.075,0.361-0.153,0.527c-0.064,0.131-0.148,0.252-0.248,0.357
		c-0.088,0.092-0.188,0.168-0.297,0.229c-0.098,0.053-0.199,0.094-0.304,0.123c-0.087,0.031-0.179,0.053-0.271,0.063
		c-0.08,0-0.141,0.01-0.18,0.01c-0.185,0-0.367-0.033-0.539-0.098c-0.181-0.064-0.343-0.168-0.477-0.303
		c-0.148-0.154-0.264-0.338-0.336-0.539c-0.092-0.26-0.135-0.535-0.126-0.809c-0.003-0.236,0.032-0.473,0.106-0.697
		c0.064-0.197,0.168-0.379,0.303-0.537c0.133-0.154,0.299-0.277,0.486-0.359c0.385-0.154,0.813-0.166,1.207-0.033
		c0.151,0.055,0.291,0.137,0.412,0.24c0.109,0.098,0.199,0.213,0.264,0.346c0.063,0.125,0.104,0.26,0.121,0.4L99.714,70.708z"/>
	<path style="clip-path:url(#SVGID_5_);fill-rule:evenodd;clip-rule:evenodd;fill:#FFFFFF;" d="M105.403,71.366
		c0,0.125-0.012,0.252-0.033,0.375c-0.023,0.135-0.061,0.266-0.11,0.391c-0.051,0.127-0.118,0.248-0.196,0.359
		c-0.084,0.119-0.187,0.223-0.304,0.311c-0.126,0.094-0.269,0.166-0.419,0.213c-0.357,0.104-0.736,0.104-1.094,0
		c-0.151-0.047-0.293-0.119-0.42-0.213c-0.115-0.088-0.217-0.191-0.301-0.311c-0.08-0.111-0.146-0.232-0.199-0.359
		c-0.049-0.125-0.086-0.256-0.109-0.391c-0.045-0.248-0.045-0.502,0-0.752c0.023-0.135,0.061-0.266,0.109-0.391
		c0.053-0.127,0.119-0.248,0.199-0.357c0.084-0.119,0.186-0.225,0.301-0.313c0.127-0.092,0.269-0.166,0.42-0.213
		c0.357-0.104,0.736-0.104,1.094,0c0.15,0.047,0.293,0.121,0.419,0.213c0.117,0.088,0.22,0.193,0.304,0.313
		c0.078,0.109,0.146,0.23,0.196,0.357c0.05,0.125,0.087,0.256,0.11,0.391C105.392,71.114,105.403,71.239,105.403,71.366
		 M104.944,71.366c0.002-0.184-0.025-0.363-0.08-0.539c-0.047-0.154-0.125-0.299-0.229-0.424c-0.098-0.119-0.22-0.215-0.359-0.279
		c-0.307-0.135-0.656-0.135-0.963,0c-0.14,0.064-0.262,0.16-0.359,0.279c-0.104,0.125-0.182,0.27-0.229,0.424
		c-0.104,0.352-0.104,0.725,0,1.076c0.048,0.154,0.126,0.299,0.229,0.424c0.098,0.119,0.22,0.215,0.359,0.279
		c0.307,0.135,0.656,0.135,0.963,0c0.14-0.064,0.262-0.16,0.359-0.279c0.104-0.125,0.182-0.27,0.229-0.424
		C104.919,71.729,104.946,71.548,104.944,71.366"/>
	<path style="clip-path:url(#SVGID_5_);fill-rule:evenodd;clip-rule:evenodd;fill:#FFFFFF;" d="M108.007,72.632h0.953
		c0.189,0.014,0.377-0.045,0.525-0.164c0.121-0.113,0.188-0.273,0.179-0.439c0.005-0.098-0.019-0.195-0.067-0.281
		c-0.045-0.07-0.107-0.129-0.18-0.17c-0.076-0.043-0.16-0.07-0.248-0.082c-0.092-0.014-0.186-0.021-0.277-0.021h-0.879v1.156
		L108.007,72.632z M107.562,69.718h1.453c0.139-0.002,0.275,0.02,0.406,0.066c0.108,0.039,0.209,0.1,0.293,0.18
		c0.078,0.074,0.139,0.164,0.18,0.264c0.039,0.102,0.06,0.209,0.059,0.32c0,0.059-0.006,0.119-0.018,0.178
		c-0.014,0.063-0.036,0.123-0.068,0.18c-0.033,0.066-0.078,0.125-0.131,0.18c-0.064,0.061-0.141,0.111-0.225,0.148
		c0.058,0.021,0.119,0.047,0.182,0.082c0.072,0.035,0.137,0.084,0.195,0.139c0.065,0.066,0.119,0.145,0.154,0.23
		c0.047,0.115,0.068,0.236,0.063,0.359c0.001,0.129-0.024,0.256-0.074,0.375c-0.048,0.115-0.121,0.223-0.214,0.309
		c-0.102,0.094-0.221,0.166-0.352,0.211c-0.154,0.055-0.318,0.082-0.484,0.08h-1.422v-3.301H107.562z M108.007,71.112h0.806
		c0.176,0.01,0.352-0.029,0.507-0.115c0.131-0.096,0.199-0.256,0.18-0.416c0.008-0.139-0.051-0.271-0.156-0.359
		c-0.158-0.096-0.344-0.139-0.528-0.123h-0.81v1.02L108.007,71.112z"/>
	<path style="clip-path:url(#SVGID_5_);fill-rule:evenodd;clip-rule:evenodd;fill:#FFFFFF;" d="M112.771,71.22h1.035
		c0.082,0,0.164-0.008,0.245-0.023c0.076-0.012,0.148-0.039,0.214-0.082c0.065-0.045,0.118-0.105,0.153-0.18
		c0.082-0.189,0.082-0.406,0-0.596c-0.035-0.068-0.088-0.123-0.152-0.164c-0.059-0.037-0.123-0.061-0.191-0.068
		c-0.061-0.01-0.119-0.014-0.18-0.016h-1.113v1.121L112.771,71.22z M112.771,73.011h-0.446V69.72h1.528
		c0.134,0,0.267,0.012,0.397,0.041c0.123,0.023,0.24,0.072,0.347,0.139c0.104,0.068,0.188,0.162,0.247,0.271
		c0.068,0.133,0.1,0.281,0.095,0.434c0.002,0.105-0.012,0.211-0.042,0.313c-0.043,0.146-0.133,0.275-0.256,0.367
		c-0.053,0.039-0.105,0.076-0.161,0.107c0.048,0.02,0.095,0.041,0.14,0.066c0.047,0.025,0.09,0.061,0.123,0.104
		c0.041,0.053,0.071,0.115,0.09,0.178c0.026,0.092,0.041,0.186,0.043,0.279l0.027,0.596c-0.004,0.039-0.004,0.078,0,0.117
		c0.004,0.031,0.014,0.061,0.025,0.088c0.012,0.025,0.029,0.049,0.051,0.068c0.023,0.021,0.052,0.041,0.082,0.057v0.074h-0.539
		c-0.02-0.064-0.031-0.129-0.04-0.195c-0.01-0.082-0.021-0.164-0.024-0.246c-0.006-0.082-0.01-0.158-0.012-0.23
		c-0.001-0.072,0-0.125,0-0.154c0-0.068-0.005-0.139-0.016-0.207c-0.012-0.068-0.037-0.133-0.079-0.189
		c-0.047-0.061-0.108-0.109-0.181-0.139c-0.1-0.039-0.207-0.057-0.313-0.051h-1.079v1.412L112.771,73.011z"/>
	<path style="clip-path:url(#SVGID_5_);fill-rule:evenodd;clip-rule:evenodd;fill:#FFFFFF;" d="M118.911,71.655l-0.487-1.449h-0.009
		l-0.528,1.449H118.911z M117.747,72.05l-0.344,0.959h-0.461l1.242-3.293h0.505l1.196,3.293h-0.486l-0.326-0.959H117.747z"/>
	<polygon style="clip-path:url(#SVGID_5_);fill-rule:evenodd;clip-rule:evenodd;fill:#FFFFFF;" points="124.115,69.718 
		124.55,69.718 124.55,73.011 124.048,73.011 122.366,70.351 122.359,70.351 122.359,73.011 121.927,73.011 121.927,69.718 
		122.454,69.718 124.106,72.378 124.115,72.378 	"/>
	<path style="clip-path:url(#SVGID_5_);fill-rule:evenodd;clip-rule:evenodd;fill:#FFFFFF;" d="M127.353,72.632h0.865
		c0.272,0.008,0.531-0.113,0.697-0.33c0.192-0.279,0.284-0.617,0.262-0.957c0.024-0.332-0.069-0.664-0.267-0.934
		c-0.179-0.209-0.444-0.324-0.719-0.313h-0.833v2.533H127.353z M126.907,69.718h1.338c0.201-0.002,0.398,0.037,0.58,0.117
		c0.168,0.076,0.318,0.188,0.438,0.328c0.123,0.148,0.219,0.32,0.276,0.504c0.067,0.211,0.099,0.43,0.097,0.65
		c0,0.193-0.023,0.387-0.065,0.574c-0.043,0.197-0.122,0.383-0.229,0.551c-0.244,0.371-0.666,0.588-1.113,0.566h-1.32V69.718z"/>
	<path style="clip-path:url(#SVGID_5_);fill-rule:evenodd;clip-rule:evenodd;fill:#F7C545;" d="M126.712,45.901
		c0.779-1.16,1.776-2.16,2.936-2.945c1.406,1.527,3.126,2.631,5,3.012c0.582-1.156,0.874-2.438,0.852-3.73
		c0.934-0.443,1.812-0.994,2.615-1.643c2.645,0.111,5.264,0.969,7.387,2.688c-4.277,6.428-13.98,6.973-18.797,2.619H126.712z"/>
	<path style="clip-path:url(#SVGID_5_);fill-rule:evenodd;clip-rule:evenodd;fill:#F08A4A;" d="M138.122,40.595
		c-0.805,0.648-1.682,1.199-2.616,1.643c0.001-0.502-0.03-1.002-0.095-1.498C136.308,40.604,137.216,40.556,138.122,40.595"/>
	<path style="clip-path:url(#SVGID_5_);fill-rule:evenodd;clip-rule:evenodd;fill:#ACC247;" d="M133.423,35.128
		c1.371-3.523,4.39-6.127,8.783-7.314c1.409,5.049-0.43,9.834-4.084,12.783c-0.906-0.037-1.813,0.01-2.712,0.143
		C135.138,38.753,134.462,36.845,133.423,35.128"/>
	<path style="clip-path:url(#SVGID_5_);fill-rule:evenodd;clip-rule:evenodd;fill:#B488B0;" d="M135.411,40.737
		c0.063,0.498,0.096,0.998,0.096,1.5c-0.824,0.391-1.686,0.699-2.57,0.92c-0.119-0.588-0.209-1.166-0.268-1.73
		c0.889-0.318,1.808-0.547,2.742-0.686V40.737z"/>
	<path style="clip-path:url(#SVGID_5_);fill-rule:evenodd;clip-rule:evenodd;fill:#378EC0;" d="M133.423,35.128
		c1.039,1.715,1.717,3.625,1.99,5.609c-0.935,0.139-1.853,0.367-2.742,0.686C132.433,39.116,132.696,36.993,133.423,35.128"/>
	<path style="clip-path:url(#SVGID_5_);fill-rule:evenodd;clip-rule:evenodd;fill:#E43F39;" d="M134.653,45.968
		c-1.875-0.381-3.595-1.486-5-3.014c0.937-0.637,1.951-1.15,3.018-1.529c0.059,0.566,0.148,1.143,0.268,1.73
		c0.885-0.221,1.744-0.527,2.569-0.918c0.022,1.293-0.271,2.574-0.853,3.73H134.653z"/>
	<path style="clip-path:url(#SVGID_5_);fill-rule:evenodd;clip-rule:evenodd;fill:#44A9D8;" d="M129.647,42.956
		c-3.1-3.383-4.674-8.818-3.002-13.109c2.803,0.537,5.188,2.645,6.775,5.279c-0.719,1.867-0.99,3.99-0.752,6.295
		C131.601,41.8,130.583,42.315,129.647,42.956"/>
	
		<linearGradient id="SVGID_7_" gradientUnits="userSpaceOnUse" x1="-4490.5195" y1="684.5" x2="-4489.5195" y2="684.5" gradientTransform="matrix(339.932 0 0 -339.932 1526488.875 233070.5625)">
		<stop  offset="0" style="stop-color:#116BAC"/>
		<stop  offset="1" style="stop-color:#902484"/>
	</linearGradient>
	<path style="clip-path:url(#SVGID_5_);fill:url(#SVGID_7_);" d="M322.5,662v4.5h-270C33.444,666.496,18.003,651.055,18,632V143.001
		c0.003-19.055,15.444-34.498,34.5-34.5h270c19.055,0.002,34.497,15.445,34.5,34.5V632c-0.003,19.055-15.445,34.496-34.5,34.5V662
		v-4.5c14.081-0.025,25.475-11.42,25.5-25.5V143.001c-0.025-14.082-11.419-25.475-25.5-25.5h-270
		c-14.081,0.025-25.475,11.418-25.5,25.5V632c0.025,14.08,11.419,25.475,25.5,25.5h270V662z"/>
</g>
<g>
	<defs>
		<rect id="SVGID_73_" y="0.001" width="375" height="684.999"/>
	</defs>
	<clipPath id="SVGID_9_">
		<use xlink:href="#SVGID_73_"  style="overflow:visible;"/>
	</clipPath>
</g>
<g>
	<g>
		<g>
			<g>
				<path style="fill:#116BAC;" d="M82.903,287.759c0,7.815-6.174,15.303-20.031,15.303c-6.371,0-13.135-1.576-17.863-4.532
					l4.729-9.785c3.678,2.495,8.406,3.81,12.74,3.81c4.4,0,7.291-1.708,7.291-4.795c0-2.758-2.037-4.466-7.027-4.466H57.29v-8.209
					l8.209-8.866H47.373V256.17h33.231v8.144l-9.523,10.245C78.831,276.201,82.903,281.192,82.903,287.759z"/>
				<path style="fill:#116BAC;" d="M83.817,279.156c0-15.17,8.538-23.904,20.293-23.904c11.691,0,20.229,8.734,20.229,23.904
					c0,15.171-8.537,23.906-20.229,23.906C92.355,303.062,83.817,294.327,83.817,279.156z M111.27,279.156
					c0-9.653-3.021-13.266-7.159-13.266c-4.203,0-7.223,3.612-7.223,13.266c0,9.654,3.02,13.267,7.223,13.267
					C108.249,292.422,111.27,288.81,111.27,279.156z"/>
			</g>
			<g>
				<path style="fill:#116BAC;" d="M131.219,266.882c0-3.75,2.04-6.185,4.968-6.185s4.967,2.435,4.967,6.185
					s-2.039,6.185-4.967,6.185S131.219,270.632,131.219,266.882z M140.266,266.882c0-3.322-1.646-5.362-4.079-5.362
					c-2.402,0-4.08,2.04-4.08,5.362s1.678,5.362,4.08,5.362C138.62,272.245,140.266,270.205,140.266,266.882z M150.267,260.796h1.02
					l-15.725,23.028h-1.02L150.267,260.796z M144.674,277.739c0-3.751,2.04-6.185,4.968-6.185s5,2.434,5,6.185
					c0,3.75-2.072,6.185-5,6.185S144.674,281.489,144.674,277.739z M153.722,277.739c0-3.323-1.679-5.362-4.08-5.362
					s-4.047,2.039-4.047,5.362c0,3.322,1.646,5.362,4.047,5.362S153.722,281.061,153.722,277.739z"/>
			</g>
			<g>
				<path style="fill:#116BAC;" d="M136.814,290.507v10.824h-0.467v-2.071c-0.569,1.313-1.78,2.115-3.268,2.115
					c-2.101,0-3.706-1.575-3.706-3.837c0-2.261,1.605-3.836,3.706-3.836c1.458,0,2.685,0.787,3.253,2.086v-5.281H136.814z
					 M136.333,297.539c0-2.013-1.386-3.384-3.238-3.384c-1.854,0-3.238,1.371-3.238,3.384c0,2.014,1.385,3.399,3.238,3.399
					C134.947,300.938,136.333,299.552,136.333,297.539z"/>
				<path style="fill:#116BAC;" d="M139.192,297.539c0-2.261,1.591-3.836,3.764-3.836c1.139,0,2.16,0.438,2.801,1.298l-0.364,0.307
					c-0.569-0.788-1.458-1.152-2.437-1.152c-1.881,0-3.281,1.371-3.281,3.384c0,2.028,1.4,3.399,3.281,3.399
					c0.979,0,1.867-0.365,2.437-1.152l0.364,0.291c-0.641,0.861-1.662,1.299-2.801,1.299
					C140.783,301.375,139.192,299.8,139.192,297.539z"/>
				<path style="fill:#116BAC;" d="M151.696,300.85c-0.365,0.351-0.963,0.525-1.518,0.525c-1.255,0-1.926-0.759-1.926-1.94v-5.251
					h-1.43v-0.424h1.43v-1.662h0.481v1.662h2.495v0.424h-2.495v5.178c0,1.021,0.511,1.591,1.487,1.591
					c0.467,0,0.904-0.161,1.227-0.452L151.696,300.85z"/>
				<path style="fill:#116BAC;" d="M152.702,297.539c0-2.246,1.59-3.836,3.721-3.836c2.144,0,3.719,1.59,3.719,3.836
					c0,2.247-1.575,3.837-3.719,3.837C154.292,301.375,152.702,299.786,152.702,297.539z M159.661,297.539
					c0-2.013-1.387-3.384-3.238-3.384c-1.854,0-3.239,1.371-3.239,3.384c0,2.014,1.386,3.399,3.239,3.399
					C158.274,300.938,159.661,299.552,159.661,297.539z"/>
			</g>
		</g>
		<g>
			<path style="fill:#116BAC;" d="M111.495,225.21h2.97v8.146h5.01v2.354h-7.979V225.21z"/>
			<path style="fill:#116BAC;" d="M120.464,231.031v-5.82h2.971v5.73c0,1.8,0.75,2.52,1.994,2.52c1.23,0,1.98-0.72,1.98-2.52v-5.73
				h2.925v5.82c0,3.135-1.83,4.89-4.935,4.89C122.294,235.92,120.464,234.166,120.464,231.031z"/>
			<path style="fill:#116BAC;" d="M142.334,225.21v10.5h-2.444l-4.635-5.595v5.595h-2.91v-10.5h2.444l4.636,5.595v-5.595H142.334z"
				/>
			<path style="fill:#116BAC;" d="M152.864,233.416v2.295h-8.43v-10.5h8.234v2.295h-5.295v1.771h4.666v2.22h-4.666v1.92H152.864z"/>
			<path style="fill:#116BAC;" d="M153.779,234.765l0.976-2.189c0.93,0.615,2.25,1.035,3.465,1.035c1.229,0,1.709-0.346,1.709-0.855
				c0-1.665-5.969-0.45-5.969-4.35c0-1.875,1.529-3.405,4.649-3.405c1.364,0,2.774,0.315,3.81,0.915l-0.915,2.205
				c-1.005-0.54-1.995-0.81-2.909-0.81c-1.246,0-1.695,0.42-1.695,0.944c0,1.605,5.955,0.405,5.955,4.275
				c0,1.83-1.53,3.39-4.65,3.39C156.479,235.92,154.77,235.456,153.779,234.765z"/>
			<path style="fill:#116BAC;" d="M174.209,231.946v3.765h-2.97v-3.81l-4.005-6.69h3.135l2.489,4.17l2.49-4.17h2.88L174.209,231.946
				z"/>
			<path style="fill:#116BAC;" d="M192.823,235.71l-0.029-5.564l-2.7,4.529h-1.319l-2.686-4.38v5.415h-2.745v-10.5h2.444l3.69,6.061
				l3.601-6.061h2.444l0.03,10.5H192.823z"/>
			<path style="fill:#116BAC;" d="M197.653,225.21h2.971v10.5h-2.971V225.21z"/>
			<path style="fill:#116BAC;" d="M211.169,233.416v2.295h-8.431v-10.5h8.235v2.295h-5.295v1.771h4.664v2.22h-4.664v1.92H211.169z
				 M207.433,224.356h-2.039l2.01-2.28h2.85L207.433,224.356z"/>
			<path style="fill:#116BAC;" d="M217.407,232.92h-1.619v2.79h-2.971v-10.5h4.801c2.865,0,4.664,1.485,4.664,3.886
				c0,1.545-0.75,2.685-2.055,3.314l2.266,3.3h-3.18L217.407,232.92z M217.438,227.55h-1.65v3.075h1.65
				c1.229,0,1.844-0.569,1.844-1.529C219.282,228.121,218.667,227.55,217.438,227.55z"/>
			<path style="fill:#116BAC;" d="M223.378,230.46c0-3.194,2.445-5.46,5.775-5.46c1.936,0,3.494,0.705,4.516,1.98l-1.891,1.71
				c-0.66-0.795-1.471-1.23-2.475-1.23c-1.725,0-2.926,1.2-2.926,3s1.201,3,2.926,3c1.004,0,1.814-0.435,2.475-1.229l1.891,1.71
				c-1.021,1.274-2.58,1.979-4.516,1.979C225.823,235.92,223.378,233.656,223.378,230.46z"/>
			<path style="fill:#116BAC;" d="M234.448,230.46c0-3.149,2.475-5.46,5.834-5.46c3.361,0,5.836,2.311,5.836,5.46
				c0,3.15-2.475,5.46-5.836,5.46C236.923,235.92,234.448,233.611,234.448,230.46z M243.118,230.46c0-1.814-1.246-3-2.836-3
				s-2.834,1.186-2.834,3c0,1.815,1.244,3,2.834,3S243.118,232.276,243.118,230.46z"/>
			<path style="fill:#116BAC;" d="M247.679,225.21h2.969v8.146h5.01v2.354h-7.979V225.21z"/>
			<path style="fill:#116BAC;" d="M265.257,233.416v2.295h-8.43v-10.5h8.234v2.295h-5.293v1.771h4.664v2.22h-4.664v1.92H265.257z"/>
			<path style="fill:#116BAC;" d="M266.173,234.765l0.975-2.189c0.93,0.615,2.25,1.035,3.465,1.035c1.23,0,1.711-0.346,1.711-0.855
				c0-1.665-5.971-0.45-5.971-4.35c0-1.875,1.531-3.405,4.65-3.405c1.365,0,2.775,0.315,3.811,0.915l-0.916,2.205
				c-1.004-0.54-1.994-0.81-2.91-0.81c-1.244,0-1.695,0.42-1.695,0.944c0,1.605,5.955,0.405,5.955,4.275
				c0,1.83-1.529,3.39-4.648,3.39C268.872,235.92,267.163,235.456,266.173,234.765z"/>
		</g>
		<g>
			<path style="fill:#116BAC;" d="M221.322,270.871l-0.011-5.104l-2.531,4.225h-0.638l-2.53-4.159v5.039h-1.364v-7.701h1.177
				l3.059,5.104l3.004-5.104h1.177l0.011,7.701H221.322z"/>
			<path style="fill:#116BAC;" d="M229.979,269.671v1.199h-5.776v-7.701h5.622v1.199h-4.191v2.002h3.719v1.178h-3.719v2.123H229.979
				z"/>
			<path style="fill:#116BAC;" d="M231.022,263.169h3.367c2.497,0,4.202,1.54,4.202,3.851s-1.705,3.851-4.202,3.851h-3.367V263.169z
				 M234.323,269.661c1.717,0,2.828-1.045,2.828-2.641c0-1.595-1.111-2.641-2.828-2.641h-1.87v5.281H234.323z"/>
			<path style="fill:#116BAC;" d="M239.559,263.169h1.431v7.701h-1.431V263.169z"/>
			<path style="fill:#116BAC;" d="M241.968,267.02c0-2.299,1.76-3.961,4.125-3.961c1.254,0,2.332,0.451,3.048,1.287l-0.925,0.869
				c-0.561-0.604-1.254-0.901-2.057-0.901c-1.596,0-2.75,1.122-2.75,2.706s1.154,2.706,2.75,2.706c0.803,0,1.496-0.297,2.057-0.913
				l0.925,0.881c-0.716,0.836-1.794,1.287-3.059,1.287C243.728,270.981,241.968,269.32,241.968,267.02z"/>
			<path style="fill:#116BAC;" d="M254.959,269.088h-3.851l-0.759,1.782h-1.475l3.466-7.701h1.408l3.477,7.701h-1.496
				L254.959,269.088z M254.485,267.966l-1.451-3.366l-1.441,3.366H254.485z"/>
			<path style="fill:#116BAC;" d="M264.728,270.871l-0.012-5.104l-2.529,4.225h-0.639l-2.53-4.159v5.039h-1.364v-7.701h1.178
				l3.058,5.104l3.003-5.104h1.178l0.012,7.701H264.728z"/>
			<path style="fill:#116BAC;" d="M273.384,269.671v1.199h-5.775v-7.701h5.621v1.199h-4.191v2.002h3.719v1.178h-3.719v2.123H273.384
				z"/>
			<path style="fill:#116BAC;" d="M281.271,263.169v7.701h-1.176l-4.248-5.215v5.215h-1.418v-7.701h1.177l4.247,5.215v-5.215
				H281.271z"/>
			<path style="fill:#116BAC;" d="M284.351,264.379h-2.553v-1.21h6.535v1.21h-2.553v6.491h-1.43V264.379z"/>
			<path style="fill:#116BAC;" d="M288.31,267.02c0-2.277,1.76-3.961,4.148-3.961c2.387,0,4.146,1.673,4.146,3.961
				s-1.76,3.961-4.146,3.961C290.069,270.981,288.31,269.297,288.31,267.02z M295.163,267.02c0-1.573-1.154-2.706-2.705-2.706
				c-1.552,0-2.707,1.133-2.707,2.706s1.155,2.706,2.707,2.706C294.009,269.726,295.163,268.593,295.163,267.02z"/>
			<path style="fill:#116BAC;" d="M296.923,270.056l0.496-1.11c0.615,0.494,1.595,0.847,2.541,0.847
				c1.199,0,1.705-0.429,1.705-1.001c0-1.661-4.576-0.572-4.576-3.433c0-1.243,0.989-2.3,3.102-2.3c0.924,0,1.893,0.242,2.563,0.683
				l-0.451,1.111c-0.692-0.407-1.452-0.605-2.123-0.605c-1.188,0-1.673,0.462-1.673,1.045c0,1.64,4.566,0.572,4.566,3.399
				c0,1.232-1.002,2.289-3.113,2.289C298.761,270.981,297.562,270.607,296.923,270.056z"/>
			<path style="fill:#116BAC;" d="M200.021,278.169l-3.355,7.701h-1.408l-3.366-7.701h1.552l2.563,5.941l2.586-5.941H200.021z"/>
			<path style="fill:#116BAC;" d="M200.448,278.169h1.431v7.701h-1.431V278.169z"/>
			<path style="fill:#116BAC;" d="M204.97,279.379h-2.553v-1.21h6.535v1.21h-2.553v6.491h-1.43V279.379z"/>
			<path style="fill:#116BAC;" d="M214.474,284.088h-3.85l-0.76,1.782h-1.475l3.467-7.701h1.408l3.477,7.701h-1.497L214.474,284.088
				z M214.001,282.966l-1.452-3.366l-1.44,3.366H214.001z"/>
			<path style="fill:#116BAC;" d="M224.243,285.871l-0.012-5.104l-2.53,4.225h-0.638l-2.531-4.159v5.039h-1.363v-7.701h1.177
				l3.058,5.104l3.004-5.104h1.178l0.011,7.701H224.243z"/>
			<path style="fill:#116BAC;" d="M227.124,278.169h1.43v7.701h-1.43V278.169z"/>
			<path style="fill:#116BAC;" d="M236.925,278.169v7.701h-1.177l-4.247-5.215v5.215h-1.419v-7.701h1.177l4.247,5.215v-5.215
				H236.925z"/>
			<path style="fill:#116BAC;" d="M243.437,284.088h-3.85l-0.76,1.782h-1.475l3.467-7.701h1.408l3.477,7.701h-1.497L243.437,284.088
				z M242.964,282.966l-1.452-3.366l-1.44,3.366H242.964z"/>
			<path style="fill:#116BAC;" d="M245.481,285.056l0.496-1.11c0.615,0.494,1.595,0.847,2.541,0.847
				c1.199,0,1.705-0.429,1.705-1.001c0-1.661-4.576-0.572-4.576-3.433c0-1.243,0.989-2.3,3.102-2.3c0.924,0,1.893,0.242,2.563,0.683
				l-0.451,1.111c-0.692-0.407-1.452-0.605-2.123-0.605c-1.188,0-1.673,0.462-1.673,1.045c0,1.64,4.566,0.572,4.566,3.399
				c0,1.232-1.002,2.289-3.113,2.289C247.319,285.981,246.12,285.607,245.481,285.056z"/>
			<path style="fill:#116BAC;" d="M253.71,285.035c0,0.242-0.055,0.439-0.253,0.946l-0.562,1.551h-0.891l0.439-1.684
				c-0.308-0.132-0.517-0.418-0.517-0.813c0-0.55,0.386-0.913,0.892-0.913C253.336,284.122,253.71,284.496,253.71,285.035z"/>
			<path style="fill:#116BAC;" d="M256.569,282.02c0-2.299,1.76-3.961,4.126-3.961c1.254,0,2.332,0.451,3.048,1.287l-0.925,0.869
				c-0.562-0.604-1.254-0.901-2.058-0.901c-1.595,0-2.75,1.122-2.75,2.706s1.155,2.706,2.75,2.706c0.804,0,1.496-0.297,2.058-0.913
				l0.925,0.881c-0.716,0.836-1.794,1.287-3.059,1.287C258.329,285.981,256.569,284.32,256.569,282.02z"/>
			<path style="fill:#116BAC;" d="M264.017,282.02c0-2.277,1.76-3.961,4.148-3.961c2.387,0,4.146,1.673,4.146,3.961
				s-1.76,3.961-4.146,3.961C265.776,285.981,264.017,284.297,264.017,282.02z M270.87,282.02c0-1.573-1.154-2.706-2.705-2.706
				c-1.552,0-2.707,1.133-2.707,2.706s1.155,2.706,2.707,2.706C269.716,284.726,270.87,283.593,270.87,282.02z"/>
			<path style="fill:#116BAC;" d="M273.278,278.169h1.431v6.491h4.026v1.21h-5.457V278.169z"/>
			<path style="fill:#116BAC;" d="M284.312,284.088h-3.85l-0.76,1.782h-1.475l3.467-7.701h1.408l3.477,7.701h-1.497L284.312,284.088
				z M283.839,282.966l-1.452-3.366l-1.44,3.366H283.839z M282.661,277.542h-1.188l1.485-1.507h1.617L282.661,277.542z"/>
			<path style="fill:#116BAC;" d="M292.265,281.932h1.354v3.069c-0.803,0.649-1.926,0.979-3.014,0.979
				c-2.389,0-4.148-1.661-4.148-3.961c0-2.299,1.76-3.961,4.17-3.961c1.287,0,2.365,0.43,3.092,1.255l-0.902,0.88
				c-0.605-0.605-1.299-0.88-2.123-0.88c-1.64,0-2.795,1.111-2.795,2.706c0,1.563,1.155,2.706,2.783,2.706
				c0.551,0,1.09-0.109,1.584-0.396V281.932z"/>
			<path style="fill:#116BAC;" d="M300.724,284.671v1.199h-5.775v-7.701h5.621v1.199h-4.191v2.002h3.719v1.178h-3.719v2.123H300.724
				z"/>
			<path style="fill:#116BAC;" d="M308.611,278.169v7.701h-1.177l-4.247-5.215v5.215h-1.419v-7.701h1.178l4.246,5.215v-5.215
				H308.611z"/>
			<path style="fill:#116BAC;" d="M309.578,282.02c0-2.277,1.761-3.961,4.147-3.961c2.388,0,4.148,1.673,4.148,3.961
				s-1.761,3.961-4.148,3.961C311.339,285.981,309.578,284.297,309.578,282.02z M316.433,282.02c0-1.573-1.155-2.706-2.707-2.706
				c-1.551,0-2.706,1.133-2.706,2.706s1.155,2.706,2.706,2.706C315.277,284.726,316.433,283.593,316.433,282.02z"/>
			<path style="fill:#116BAC;" d="M318.191,285.056l0.495-1.11c0.615,0.494,1.596,0.847,2.541,0.847
				c1.199,0,1.705-0.429,1.705-1.001c0-1.661-4.576-0.572-4.576-3.433c0-1.243,0.99-2.3,3.102-2.3c0.925,0,1.893,0.242,2.564,0.683
				l-0.451,1.111c-0.693-0.407-1.453-0.605-2.123-0.605c-1.189,0-1.673,0.462-1.673,1.045c0,1.64,4.565,0.572,4.565,3.399
				c0,1.232-1.001,2.289-3.113,2.289C320.028,285.981,318.829,285.607,318.191,285.056z"/>
			<path style="fill:#116BAC;" d="M183.536,298.153v2.718h-1.43v-2.695l-3.025-5.006h1.529l2.256,3.752l2.277-3.752h1.408
				L183.536,298.153z"/>
			<path style="fill:#116BAC;" d="M188.772,300.056l0.494-1.11c0.617,0.494,1.596,0.847,2.542,0.847
				c1.199,0,1.706-0.429,1.706-1.001c0-1.661-4.577-0.572-4.577-3.433c0-1.243,0.989-2.3,3.103-2.3c0.924,0,1.893,0.242,2.563,0.683
				l-0.451,1.111c-0.692-0.407-1.451-0.605-2.123-0.605c-1.188,0-1.672,0.462-1.672,1.045c0,1.64,4.566,0.572,4.566,3.399
				c0,1.232-1.002,2.289-3.114,2.289C190.609,300.981,189.41,300.607,188.772,300.056z"/>
			<path style="fill:#116BAC;" d="M195.724,297.515v-4.346h1.431v4.291c0,1.584,0.715,2.266,1.958,2.266s1.947-0.682,1.947-2.266
				v-4.291h1.408v4.346c0,2.244-1.266,3.466-3.366,3.466C196.989,300.981,195.724,299.759,195.724,297.515z"/>
			<path style="fill:#116BAC;" d="M210.366,295.909c0,1.694-1.254,2.739-3.279,2.739h-1.738v2.223h-1.43v-7.701h3.168
				C209.112,293.169,210.366,294.204,210.366,295.909z M208.925,295.909c0-0.968-0.649-1.529-1.903-1.529h-1.673v3.059h1.673
				C208.275,297.438,208.925,296.877,208.925,295.909z"/>
			<path style="fill:#116BAC;" d="M211.354,293.169h1.431v6.491h4.026v1.21h-5.457V293.169z"/>
			<path style="fill:#116BAC;" d="M223.17,299.671v1.199h-5.776v-7.701h5.622v1.199h-4.191v2.002h3.719v1.178h-3.719v2.123H223.17z"
				/>
			<path style="fill:#116BAC;" d="M231.288,300.871l-0.012-5.104l-2.529,4.225h-0.639l-2.53-4.159v5.039h-1.364v-7.701h1.178
				l3.058,5.104l3.003-5.104h1.178l0.012,7.701H231.288z"/>
			<path style="fill:#116BAC;" d="M239.944,299.671v1.199h-5.775v-7.701h5.621v1.199h-4.191v2.002h3.719v1.178h-3.719v2.123H239.944
				z"/>
			<path style="fill:#116BAC;" d="M247.831,293.169v7.701h-1.176l-4.248-5.215v5.215h-1.418v-7.701h1.177l4.247,5.215v-5.215
				H247.831z"/>
			<path style="fill:#116BAC;" d="M250.911,294.379h-2.553v-1.21h6.535v1.21h-2.553v6.491h-1.43V294.379z"/>
			<path style="fill:#116BAC;" d="M254.87,297.02c0-2.277,1.76-3.961,4.148-3.961c2.387,0,4.146,1.673,4.146,3.961
				s-1.76,3.961-4.146,3.961C256.63,300.981,254.87,299.297,254.87,297.02z M261.724,297.02c0-1.573-1.154-2.706-2.705-2.706
				c-1.552,0-2.707,1.133-2.707,2.706s1.155,2.706,2.707,2.706C260.569,299.726,261.724,298.593,261.724,297.02z"/>
			<path style="fill:#116BAC;" d="M263.483,300.056l0.494-1.11c0.617,0.494,1.596,0.847,2.542,0.847
				c1.199,0,1.706-0.429,1.706-1.001c0-1.661-4.577-0.572-4.577-3.433c0-1.243,0.989-2.3,3.103-2.3c0.924,0,1.893,0.242,2.563,0.683
				l-0.451,1.111c-0.692-0.407-1.451-0.605-2.123-0.605c-1.188,0-1.672,0.462-1.672,1.045c0,1.64,4.566,0.572,4.566,3.399
				c0,1.232-1.002,2.289-3.114,2.289C265.32,300.981,264.121,300.607,263.483,300.056z"/>
			<path style="fill:#116BAC;" d="M280.062,300.871l-0.012-5.104l-2.529,4.225h-0.639l-2.53-4.159v5.039h-1.364v-7.701h1.178
				l3.058,5.104l3.003-5.104h1.178l0.012,7.701H280.062z"/>
			<path style="fill:#116BAC;" d="M282.942,293.169h1.43v7.701h-1.43V293.169z"/>
			<path style="fill:#116BAC;" d="M292.743,293.169v7.701h-1.176l-4.248-5.215v5.215h-1.418v-7.701h1.177l4.247,5.215v-5.215
				H292.743z"/>
			<path style="fill:#116BAC;" d="M300.037,299.671v1.199h-5.776v-7.701h5.622v1.199h-4.191v2.002h3.719v1.178h-3.719v2.123H300.037
				z"/>
			<path style="fill:#116BAC;" d="M306.12,300.871l-1.574-2.255c-0.098,0.011-0.197,0.011-0.297,0.011h-1.738v2.244h-1.43v-7.701
				h3.168c2.025,0,3.279,1.034,3.279,2.739c0,1.166-0.594,2.024-1.64,2.432l1.771,2.53H306.12z M304.184,294.379h-1.673v3.069h1.673
				c1.254,0,1.903-0.571,1.903-1.54C306.087,294.941,305.438,294.379,304.184,294.379z"/>
			<path style="fill:#116BAC;" d="M313.566,299.088h-3.851l-0.759,1.782h-1.475l3.466-7.701h1.408l3.477,7.701h-1.496
				L313.566,299.088z M313.093,297.966l-1.451-3.366l-1.441,3.366H313.093z"/>
			<path style="fill:#116BAC;" d="M316.261,293.169h1.43v6.491h4.027v1.21h-5.457V293.169z"/>
			<path style="fill:#116BAC;" d="M328.075,299.671v1.199H322.3v-7.701h5.621v1.199h-4.191v2.002h3.719v1.178h-3.719v2.123H328.075z
				"/>
			<path style="fill:#116BAC;" d="M328.471,300.056l0.495-1.11c0.615,0.494,1.596,0.847,2.541,0.847
				c1.199,0,1.705-0.429,1.705-1.001c0-1.661-4.576-0.572-4.576-3.433c0-1.243,0.99-2.3,3.102-2.3c0.925,0,1.893,0.242,2.564,0.683
				l-0.451,1.111c-0.693-0.407-1.453-0.605-2.123-0.605c-1.189,0-1.673,0.462-1.673,1.045c0,1.64,4.565,0.572,4.565,3.399
				c0,1.232-1.001,2.289-3.113,2.289C330.308,300.981,329.108,300.607,328.471,300.056z"/>
		</g>
	</g>
	<g>
		<g>
			<g>
				<path style="fill:#902484;" d="M84.653,414.326v10.311H48.86v-8.145l17.207-16.09c3.678-3.414,4.203-5.516,4.203-7.42
					c0-2.957-1.971-4.729-5.91-4.729c-3.35,0-6.371,1.51-8.209,4.465l-9.654-5.385c3.48-5.779,9.982-9.588,19.045-9.588
					c10.574,0,17.863,5.449,17.863,13.988c0,4.465-1.248,8.537-7.814,14.578l-8.67,8.014H84.653z"/>
				<path style="fill:#902484;" d="M121.296,409.859c0,8.209-6.174,15.697-20.031,15.697c-6.371,0-13.135-1.576-17.797-4.533
					l4.662-9.785c3.744,2.496,8.34,3.811,12.74,3.811s7.355-1.773,7.355-4.861c0-2.824-1.904-4.662-8.932-4.662H86.817l2.297-26.861
					h29.291v10.049h-18.52l-0.592,6.699h3.088C115.976,395.412,121.296,401.717,121.296,409.859z"/>
			</g>
			<g>
				<path style="fill:#902484;" d="M130.146,389.377c0-3.75,2.041-6.186,4.969-6.186s4.967,2.436,4.967,6.186
					s-2.039,6.184-4.967,6.184S130.146,393.127,130.146,389.377z M139.192,389.377c0-3.322-1.645-5.363-4.078-5.363
					c-2.402,0-4.08,2.041-4.08,5.363s1.678,5.361,4.08,5.361C137.548,394.738,139.192,392.699,139.192,389.377z M149.194,383.291
					h1.02l-15.725,23.027h-1.021L149.194,383.291z M143.601,400.232c0-3.75,2.041-6.184,4.969-6.184s5,2.434,5,6.184
					s-2.072,6.186-5,6.186S143.601,403.982,143.601,400.232z M152.647,400.232c0-3.322-1.678-5.361-4.078-5.361
					c-2.402,0-4.047,2.039-4.047,5.361s1.645,5.363,4.047,5.363C150.97,405.596,152.647,403.555,152.647,400.232z"/>
			</g>
			<g>
				<path style="fill:#902484;" d="M135.741,413.002v10.824h-0.467v-2.072c-0.568,1.313-1.779,2.115-3.268,2.115
					c-2.1,0-3.705-1.574-3.705-3.836s1.605-3.836,3.705-3.836c1.459,0,2.684,0.787,3.254,2.086v-5.281H135.741z M135.261,420.033
					c0-2.014-1.387-3.385-3.238-3.385c-1.854,0-3.238,1.371-3.238,3.385s1.385,3.398,3.238,3.398
					C133.874,423.432,135.261,422.047,135.261,420.033z"/>
				<path style="fill:#902484;" d="M138.12,420.033c0-2.262,1.59-3.836,3.764-3.836c1.139,0,2.158,0.438,2.801,1.297l-0.365,0.307
					c-0.568-0.787-1.459-1.152-2.436-1.152c-1.881,0-3.281,1.371-3.281,3.385c0,2.027,1.4,3.398,3.281,3.398
					c0.977,0,1.867-0.365,2.436-1.152l0.365,0.291c-0.643,0.861-1.662,1.299-2.801,1.299
					C139.71,423.869,138.12,422.295,138.12,420.033z"/>
				<path style="fill:#902484;" d="M150.638,423.344c-0.365,0.352-0.963,0.525-1.518,0.525c-1.254,0-1.926-0.758-1.926-1.939v-5.252
					h-1.428v-0.424h1.428v-1.662h0.482v1.662h2.494v0.424h-2.494v5.178c0,1.021,0.51,1.592,1.488,1.592
					c0.467,0,0.904-0.162,1.225-0.453L150.638,423.344z"/>
				<path style="fill:#902484;" d="M151.646,420.033c0-2.246,1.59-3.836,3.719-3.836c2.145,0,3.721,1.59,3.721,3.836
					s-1.576,3.836-3.721,3.836C153.235,423.869,151.646,422.279,151.646,420.033z M158.603,420.033c0-2.014-1.385-3.385-3.238-3.385
					c-1.852,0-3.238,1.371-3.238,3.385s1.387,3.398,3.238,3.398C157.218,423.432,158.603,422.047,158.603,420.033z"/>
			</g>
		</g>
		<g>
			<path style="fill:#902484;" d="M128.345,359.039l-0.029-5.564l-2.699,4.529h-1.32l-2.686-4.381v5.416h-2.744v-10.5h2.444
				l3.69,6.061l3.6-6.061h2.445l0.029,10.5H128.345z"/>
			<path style="fill:#902484;" d="M139.835,356.998h-4.439l-0.824,2.041h-3.031l4.635-10.5h2.926l4.648,10.5h-3.09L139.835,356.998z
				 M138.966,354.809l-1.35-3.359l-1.352,3.359H138.966z"/>
			<path style="fill:#902484;" d="M148.806,356.248h-1.621v2.791h-2.969v-10.5h4.799c2.865,0,4.666,1.484,4.666,3.885
				c0,1.545-0.75,2.686-2.055,3.314l2.264,3.301h-3.18L148.806,356.248z M148.835,350.879h-1.65v3.074h1.65
				c1.23,0,1.846-0.568,1.846-1.529C150.681,351.449,150.065,350.879,148.835,350.879z"/>
			<path style="fill:#902484;" d="M157.175,350.895h-3.225v-2.355h9.404v2.355h-3.209v8.145h-2.971V350.895z"/>
			<path style="fill:#902484;" d="M172.521,356.744v2.295h-8.43v-10.5h8.234v2.295h-5.295v1.77h4.664v2.221h-4.664v1.92H172.521z"/>
			<path style="fill:#902484;" d="M173.062,358.094l0.975-2.189c0.93,0.615,2.25,1.035,3.465,1.035c1.229,0,1.709-0.346,1.709-0.855
				c0-1.666-5.969-0.451-5.969-4.35c0-1.875,1.529-3.406,4.648-3.406c1.365,0,2.775,0.316,3.811,0.916l-0.914,2.205
				c-1.006-0.541-1.996-0.811-2.91-0.811c-1.246,0-1.695,0.42-1.695,0.945c0,1.605,5.955,0.404,5.955,4.275
				c0,1.83-1.531,3.389-4.65,3.389C175.761,359.248,174.05,358.783,173.062,358.094z"/>
			<path style="fill:#902484;" d="M192.739,355.273v3.766h-2.969v-3.811l-4.006-6.689h3.135l2.49,4.17l2.49-4.17h2.879
				L192.739,355.273z"/>
			<path style="fill:#902484;" d="M211.774,348.539l-4.5,10.5h-2.926l-4.484-10.5h3.211l2.85,6.84l2.91-6.84H211.774z"/>
			<path style="fill:#902484;" d="M212.239,348.539h2.971v10.5h-2.971V348.539z"/>
			<path style="fill:#902484;" d="M225.38,356.744v2.295h-8.43v-10.5h8.234v2.295h-5.295v1.77h4.664v2.221h-4.664v1.92H225.38z"/>
			<path style="fill:#902484;" d="M231.243,356.248h-1.619v2.791h-2.971v-10.5h4.801c2.865,0,4.664,1.484,4.664,3.885
				c0,1.545-0.75,2.686-2.055,3.314l2.266,3.301h-3.18L231.243,356.248z M231.274,350.879h-1.65v3.074h1.65
				c1.229,0,1.844-0.568,1.844-1.529C233.118,351.449,232.503,350.879,231.274,350.879z"/>
			<path style="fill:#902484;" d="M247.368,348.539v10.5h-2.443l-4.635-5.596v5.596h-2.91v-10.5h2.445l4.635,5.594v-5.594H247.368z"
				/>
			<path style="fill:#902484;" d="M257.524,356.744v2.295h-8.43v-10.5h8.234v2.295h-5.295v1.77h4.664v2.221h-4.664v1.92H257.524z"/>
			<path style="fill:#902484;" d="M258.065,358.094l0.975-2.189c0.93,0.615,2.25,1.035,3.465,1.035c1.229,0,1.709-0.346,1.709-0.855
				c0-1.666-5.969-0.451-5.969-4.35c0-1.875,1.529-3.406,4.648-3.406c1.365,0,2.775,0.316,3.811,0.916l-0.914,2.205
				c-1.006-0.541-1.996-0.811-2.91-0.811c-1.246,0-1.695,0.42-1.695,0.945c0,1.605,5.955,0.404,5.955,4.275
				c0,1.83-1.531,3.389-4.65,3.389C260.765,359.248,259.054,358.783,258.065,358.094z"/>
		</g>
		<g>
			<path style="fill:#902484;" d="M207.083,385.754h3.365c2.498,0,4.203,1.539,4.203,3.85s-1.705,3.852-4.203,3.852h-3.365V385.754z
				 M210.383,392.244c1.716,0,2.827-1.045,2.827-2.641c0-1.594-1.111-2.641-2.827-2.641h-1.87v5.281H210.383z"/>
			<path style="fill:#902484;" d="M221.944,392.256v1.199h-5.775v-7.701h5.621v1.199h-4.191v2.002h3.719v1.178h-3.719v2.123H221.944
				z"/>
			<path style="fill:#902484;" d="M228.577,393.455l-1.573-2.256c-0.099,0.012-0.198,0.012-0.297,0.012h-1.738v2.244h-1.431v-7.701
				h3.169c2.024,0,3.278,1.033,3.278,2.738c0,1.166-0.594,2.025-1.639,2.432l1.771,2.531H228.577z M226.642,386.963h-1.673v3.07
				h1.673c1.254,0,1.902-0.572,1.902-1.541C228.544,387.525,227.896,386.963,226.642,386.963z"/>
			<path style="fill:#902484;" d="M238.653,393.455l-0.012-5.105l-2.529,4.225h-0.639l-2.53-4.158v5.039h-1.364v-7.701h1.178
				l3.058,5.104l3.003-5.104h1.178l0.012,7.701H238.653z"/>
			<path style="fill:#902484;" d="M241.534,389.604c0-2.277,1.76-3.961,4.147-3.961s4.147,1.674,4.147,3.961
				c0,2.289-1.76,3.961-4.147,3.961S241.534,391.881,241.534,389.604z M248.388,389.604c0-1.572-1.154-2.705-2.706-2.705
				s-2.706,1.133-2.706,2.705c0,1.574,1.154,2.707,2.706,2.707S248.388,391.178,248.388,389.604z"/>
			<path style="fill:#902484;" d="M250.796,389.604c0-2.299,1.76-3.961,4.125-3.961c1.256,0,2.334,0.451,3.049,1.287l-0.924,0.869
				c-0.563-0.604-1.256-0.9-2.059-0.9c-1.596,0-2.75,1.121-2.75,2.705s1.154,2.707,2.75,2.707c0.803,0,1.496-0.297,2.059-0.914
				l0.924,0.881c-0.715,0.836-1.793,1.287-3.059,1.287C252.556,393.564,250.796,391.904,250.796,389.604z"/>
			<path style="fill:#902484;" d="M258.64,389.604c0-2.277,1.76-3.961,4.146-3.961s4.148,1.674,4.148,3.961
				c0,2.289-1.762,3.961-4.148,3.961S258.64,391.881,258.64,389.604z M265.493,389.604c0-1.572-1.156-2.705-2.707-2.705
				s-2.707,1.133-2.707,2.705c0,1.574,1.156,2.707,2.707,2.707S265.493,391.178,265.493,389.604z"/>
			<path style="fill:#902484;" d="M267.802,392.641l0.494-1.111c0.617,0.494,1.596,0.848,2.543,0.848
				c1.199,0,1.705-0.43,1.705-1.002c0-1.66-4.578-0.572-4.578-3.432c0-1.244,0.99-2.301,3.104-2.301
				c0.924,0,1.893,0.242,2.563,0.684l-0.451,1.111c-0.693-0.408-1.451-0.605-2.123-0.605c-1.188,0-1.672,0.461-1.672,1.045
				c0,1.639,4.566,0.572,4.566,3.398c0,1.232-1.002,2.289-3.113,2.289C269.64,393.564,268.44,393.191,267.802,392.641z"/>
			<path style="fill:#902484;" d="M282.444,393.455l-0.012-5.105l-2.531,4.225h-0.637l-2.531-4.158v5.039h-1.363v-7.701h1.176
				l3.059,5.104l3.004-5.104h1.178l0.01,7.701H282.444z"/>
			<path style="fill:#902484;" d="M291.649,392.256v1.199h-5.775v-7.701h5.623v1.199h-4.193v2.002h3.719v1.178h-3.719v2.123H291.649
				z M288.966,385.127h-1.188l1.484-1.508h1.617L288.966,385.127z"/>
			<path style="fill:#902484;" d="M294.808,386.963h-2.553v-1.209h6.535v1.209h-2.553v6.492h-1.43V386.963z"/>
			<path style="fill:#902484;" d="M299.866,385.754h1.43v7.701h-1.43V385.754z"/>
			<path style="fill:#902484;" d="M302.825,389.604c0-2.299,1.76-3.961,4.125-3.961c1.256,0,2.334,0.451,3.049,1.287l-0.924,0.869
				c-0.563-0.604-1.256-0.9-2.059-0.9c-1.596,0-2.75,1.121-2.75,2.705s1.154,2.707,2.75,2.707c0.803,0,1.496-0.297,2.059-0.914
				l0.924,0.881c-0.715,0.836-1.793,1.287-3.059,1.287C304.585,393.564,302.825,391.904,302.825,389.604z"/>
			<path style="fill:#902484;" d="M316.214,391.672h-3.852l-0.76,1.783h-1.473l3.465-7.701h1.408l3.477,7.701h-1.496
				L316.214,391.672z M315.739,390.551l-1.451-3.367l-1.441,3.367H315.739z"/>
			<path style="fill:#902484;" d="M218.231,406.654l-1.573-2.254c-0.099,0.01-0.198,0.01-0.297,0.01h-1.738v2.244h-1.431v-7.701
				h3.169c2.024,0,3.278,1.035,3.278,2.74c0,1.166-0.594,2.023-1.639,2.432l1.771,2.529H218.231z M216.296,400.164h-1.673v3.068
				h1.673c1.254,0,1.902-0.57,1.902-1.539S217.55,400.164,216.296,400.164z"/>
			<path style="fill:#902484;" d="M220.684,402.805c0-2.277,1.761-3.961,4.147-3.961c2.388,0,4.148,1.672,4.148,3.961
				c0,2.287-1.761,3.961-4.148,3.961C222.444,406.766,220.684,405.082,220.684,402.805z M227.538,402.805
				c0-1.574-1.155-2.707-2.707-2.707c-1.551,0-2.706,1.133-2.706,2.707c0,1.572,1.155,2.705,2.706,2.705
				C226.383,405.51,227.538,404.377,227.538,402.805z"/>
			<path style="fill:#902484;" d="M229.847,405.84l0.494-1.109c0.617,0.494,1.596,0.846,2.542,0.846c1.199,0,1.706-0.428,1.706-1
				c0-1.662-4.577-0.572-4.577-3.434c0-1.242,0.989-2.299,3.103-2.299c0.924,0,1.893,0.242,2.563,0.682l-0.451,1.111
				c-0.692-0.406-1.451-0.605-2.123-0.605c-1.188,0-1.672,0.463-1.672,1.045c0,1.641,4.566,0.572,4.566,3.4
				c0,1.232-1.002,2.289-3.114,2.289C231.684,406.766,230.484,406.391,229.847,405.84z"/>
			<path style="fill:#902484;" d="M238.878,400.164h-2.553v-1.211h6.535v1.211h-2.553v6.49h-1.43V400.164z"/>
			<path style="fill:#902484;" d="M248.976,406.654l-1.572-2.254c-0.1,0.01-0.198,0.01-0.297,0.01h-1.738v2.244h-1.431v-7.701h3.169
				c2.023,0,3.277,1.035,3.277,2.74c0,1.166-0.594,2.023-1.639,2.432l1.771,2.529H248.976z M247.04,400.164h-1.672v3.068h1.672
				c1.254,0,1.903-0.57,1.903-1.539S248.294,400.164,247.04,400.164z"/>
			<path style="fill:#902484;" d="M251.429,402.805c0-2.277,1.76-3.961,4.146-3.961c2.389,0,4.148,1.672,4.148,3.961
				c0,2.287-1.76,3.961-4.148,3.961C253.188,406.766,251.429,405.082,251.429,402.805z M258.282,402.805
				c0-1.574-1.154-2.707-2.707-2.707c-1.551,0-2.705,1.133-2.705,2.707c0,1.572,1.154,2.705,2.705,2.705
				C257.128,405.51,258.282,404.377,258.282,402.805z"/>
			<path style="fill:#902484;" d="M263.726,402.805c0-2.299,1.76-3.961,4.125-3.961c1.256,0,2.334,0.451,3.049,1.287L269.976,401
				c-0.563-0.605-1.256-0.902-2.059-0.902c-1.596,0-2.75,1.123-2.75,2.707s1.154,2.705,2.75,2.705c0.803,0,1.496-0.297,2.059-0.912
				l0.924,0.881c-0.715,0.836-1.793,1.287-3.059,1.287C265.485,406.766,263.726,405.104,263.726,402.805z"/>
			<path style="fill:#902484;" d="M277.312,406.654l-1.572-2.254c-0.1,0.01-0.199,0.01-0.299,0.01h-1.738v2.244h-1.43v-7.701h3.168
				c2.025,0,3.279,1.035,3.279,2.74c0,1.166-0.594,2.023-1.639,2.432l1.771,2.529H277.312z M275.376,400.164h-1.674v3.068h1.674
				c1.254,0,1.902-0.57,1.902-1.539S276.63,400.164,275.376,400.164z"/>
			<path style="fill:#902484;" d="M286.089,405.455v1.199h-5.775v-7.701h5.623v1.199h-4.193v2.002h3.719v1.178h-3.719v2.123H286.089
				z"/>
			<path style="fill:#902484;" d="M294.759,406.654l-0.012-5.104l-2.531,4.225h-0.637l-2.531-4.16v5.039h-1.363v-7.701h1.176
				l3.059,5.105l3.004-5.105h1.178l0.01,7.701H294.759z"/>
			<path style="fill:#902484;" d="M303.185,404.873h-3.852l-0.76,1.781h-1.473l3.465-7.701h1.408l3.477,7.701h-1.496
				L303.185,404.873z M302.71,403.75l-1.451-3.365l-1.441,3.365H302.71z"/>
			<path style="fill:#902484;" d="M305.778,405.84l0.494-1.109c0.617,0.494,1.596,0.846,2.543,0.846c1.199,0,1.705-0.428,1.705-1
				c0-1.662-4.578-0.572-4.578-3.434c0-1.242,0.99-2.299,3.104-2.299c0.924,0,1.893,0.242,2.563,0.682l-0.451,1.111
				c-0.693-0.406-1.451-0.605-2.123-0.605c-1.188,0-1.672,0.463-1.672,1.045c0,1.641,4.566,0.572,4.566,3.4
				c0,1.232-1.002,2.289-3.113,2.289C307.616,406.766,306.417,406.391,305.778,405.84z"/>
			<path style="fill:#902484;" d="M234.77,417.137v2.719h-1.431v-2.695l-3.025-5.006h1.529l2.256,3.752l2.277-3.752h1.408
				L234.77,417.137z"/>
			<path style="fill:#902484;" d="M241.104,419.041l0.496-1.111c0.615,0.494,1.595,0.848,2.541,0.848
				c1.199,0,1.705-0.43,1.705-1.002c0-1.66-4.576-0.572-4.576-3.432c0-1.244,0.989-2.301,3.102-2.301
				c0.924,0,1.893,0.242,2.563,0.684l-0.451,1.111c-0.692-0.408-1.452-0.605-2.123-0.605c-1.188,0-1.673,0.461-1.673,1.045
				c0,1.639,4.566,0.572,4.566,3.398c0,1.232-1.002,2.289-3.113,2.289C242.942,419.965,241.743,419.592,241.104,419.041z"/>
			<path style="fill:#902484;" d="M248.122,416.004c0-2.277,1.761-3.961,4.148-3.961c2.387,0,4.146,1.674,4.146,3.961
				c0,2.289-1.76,3.961-4.146,3.961C249.883,419.965,248.122,418.281,248.122,416.004z M254.978,416.004
				c0-1.572-1.156-2.705-2.707-2.705s-2.707,1.133-2.707,2.705c0,1.574,1.156,2.707,2.707,2.707S254.978,417.578,254.978,416.004z"
				/>
			<path style="fill:#902484;" d="M257.935,412.154h1.43v6.49h4.027v1.211h-5.457V412.154z"/>
			<path style="fill:#902484;" d="M269.519,418.072h-3.85l-0.76,1.783h-1.475l3.465-7.701h1.408l3.477,7.701h-1.496L269.519,418.072
				z M269.046,416.951l-1.453-3.367l-1.441,3.367H269.046z"/>
			<path style="fill:#902484;" d="M277.802,419.855l-1.572-2.256c-0.1,0.012-0.199,0.012-0.299,0.012h-1.738v2.244h-1.43v-7.701
				h3.168c2.025,0,3.279,1.033,3.279,2.738c0,1.166-0.594,2.025-1.639,2.432l1.771,2.531H277.802z M275.866,413.363h-1.674v3.07
				h1.674c1.254,0,1.902-0.572,1.902-1.541C277.769,413.926,277.12,413.363,275.866,413.363z"/>
			<path style="fill:#902484;" d="M286.579,418.656v1.199h-5.775v-7.701h5.623v1.199h-4.193v2.002h3.719v1.178h-3.719v2.123H286.579
				z"/>
			<path style="fill:#902484;" d="M287.524,419.041l0.494-1.111c0.617,0.494,1.596,0.848,2.543,0.848
				c1.199,0,1.705-0.43,1.705-1.002c0-1.66-4.578-0.572-4.578-3.432c0-1.244,0.99-2.301,3.104-2.301
				c0.924,0,1.893,0.242,2.563,0.684l-0.451,1.111c-0.693-0.408-1.451-0.605-2.123-0.605c-1.188,0-1.672,0.461-1.672,1.045
				c0,1.639,4.566,0.572,4.566,3.398c0,1.232-1.002,2.289-3.113,2.289C289.362,419.965,288.163,419.592,287.524,419.041z"/>
		</g>
	</g>
	<g>
		<g>
			<g>
				<path style="fill:#902484;" d="M84.653,538.98v10.311H48.86v-8.145l17.207-16.09c3.678-3.414,4.203-5.516,4.203-7.422
					c0-2.955-1.971-4.729-5.91-4.729c-3.35,0-6.371,1.512-8.209,4.467l-9.654-5.385c3.48-5.779,9.982-9.59,19.045-9.59
					c10.574,0,17.863,5.451,17.863,13.99c0,4.465-1.248,8.537-7.814,14.578l-8.67,8.014H84.653z"/>
				<path style="fill:#902484;" d="M121.296,534.514c0,8.209-6.174,15.695-20.031,15.695c-6.371,0-13.135-1.576-17.797-4.531
					l4.662-9.785c3.744,2.496,8.34,3.809,12.74,3.809s7.355-1.771,7.355-4.859c0-2.824-1.904-4.662-8.932-4.662H86.817l2.297-26.861
					h29.291v10.049h-18.52l-0.592,6.699h3.088C115.976,520.066,121.296,526.371,121.296,534.514z"/>
			</g>
			<g>
				<path style="fill:#902484;" d="M130.146,514.031c0-3.75,2.041-6.186,4.969-6.186s4.967,2.436,4.967,6.186
					s-2.039,6.184-4.967,6.184S130.146,517.781,130.146,514.031z M139.192,514.031c0-3.324-1.645-5.363-4.078-5.363
					c-2.402,0-4.08,2.039-4.08,5.363c0,3.322,1.678,5.361,4.08,5.361C137.548,519.393,139.192,517.354,139.192,514.031z
					 M149.194,507.945h1.02l-15.725,23.027h-1.021L149.194,507.945z M143.601,524.887c0-3.75,2.041-6.184,4.969-6.184
					s5,2.434,5,6.184s-2.072,6.186-5,6.186S143.601,528.637,143.601,524.887z M152.647,524.887c0-3.322-1.678-5.361-4.078-5.361
					c-2.402,0-4.047,2.039-4.047,5.361s1.645,5.363,4.047,5.363C150.97,530.25,152.647,528.209,152.647,524.887z"/>
			</g>
			<g>
				<path style="fill:#902484;" d="M135.741,537.656v10.824h-0.467v-2.072c-0.568,1.313-1.779,2.115-3.268,2.115
					c-2.1,0-3.705-1.574-3.705-3.836s1.605-3.836,3.705-3.836c1.459,0,2.684,0.787,3.254,2.086v-5.281H135.741z M135.261,544.688
					c0-2.014-1.387-3.385-3.238-3.385c-1.854,0-3.238,1.371-3.238,3.385s1.385,3.398,3.238,3.398
					C133.874,548.086,135.261,546.701,135.261,544.688z"/>
				<path style="fill:#902484;" d="M138.12,544.688c0-2.262,1.59-3.836,3.764-3.836c1.139,0,2.158,0.438,2.801,1.297l-0.365,0.307
					c-0.568-0.787-1.459-1.152-2.436-1.152c-1.881,0-3.281,1.371-3.281,3.385c0,2.027,1.4,3.398,3.281,3.398
					c0.977,0,1.867-0.365,2.436-1.152l0.365,0.291c-0.643,0.861-1.662,1.299-2.801,1.299
					C139.71,548.523,138.12,546.949,138.12,544.688z"/>
				<path style="fill:#902484;" d="M150.638,547.998c-0.365,0.352-0.963,0.525-1.518,0.525c-1.254,0-1.926-0.758-1.926-1.939v-5.252
					h-1.428v-0.424h1.428v-1.662h0.482v1.662h2.494v0.424h-2.494v5.178c0,1.021,0.51,1.592,1.488,1.592
					c0.467,0,0.904-0.162,1.225-0.453L150.638,547.998z"/>
				<path style="fill:#902484;" d="M151.646,544.688c0-2.246,1.59-3.836,3.719-3.836c2.145,0,3.721,1.59,3.721,3.836
					s-1.576,3.836-3.721,3.836C153.235,548.523,151.646,546.934,151.646,544.688z M158.603,544.688c0-2.014-1.385-3.385-3.238-3.385
					c-1.852,0-3.238,1.371-3.238,3.385s1.387,3.398,3.238,3.398C157.218,548.086,158.603,546.701,158.603,544.688z"/>
			</g>
		</g>
		<g>
			<path style="fill:#902484;" d="M111.362,481.414l0.975-2.189c0.93,0.615,2.25,1.035,3.465,1.035c1.23,0,1.711-0.346,1.711-0.855
				c0-1.666-5.971-0.451-5.971-4.35c0-1.875,1.53-3.406,4.65-3.406c1.365,0,2.775,0.316,3.81,0.916l-0.915,2.205
				c-1.005-0.541-1.994-0.811-2.91-0.811c-1.244,0-1.694,0.42-1.694,0.945c0,1.605,5.954,0.404,5.954,4.275
				c0,1.83-1.529,3.389-4.649,3.389C114.062,482.568,112.353,482.104,111.362,481.414z"/>
			<path style="fill:#902484;" d="M128.462,480.318h-4.439l-0.826,2.041h-3.029l4.635-10.5h2.926l4.648,10.5h-3.09L128.462,480.318z
				 M126.841,471.004h-2.039l2.01-2.279h2.85L126.841,471.004z M127.591,478.129l-1.35-3.359l-1.35,3.359H127.591z"/>
			<path style="fill:#902484;" d="M142.831,479.479c0,1.814-1.498,2.881-4.318,2.881h-5.67v-10.5h5.369
				c2.76,0,4.109,1.125,4.109,2.744c0,1.006-0.51,1.816-1.41,2.281C142.097,477.305,142.831,478.203,142.831,479.479z
				 M135.782,474.004v2.025h2.039c0.99,0,1.5-0.346,1.5-1.02c0-0.66-0.51-1.006-1.5-1.006H135.782z M139.833,479.148
				c0-0.719-0.541-1.064-1.561-1.064h-2.49v2.131h2.49C139.292,480.215,139.833,479.869,139.833,479.148z"/>
			<path style="fill:#902484;" d="M151.036,480.318h-4.439l-0.824,2.041h-3.031l4.635-10.5h2.926l4.648,10.5h-3.09L151.036,480.318z
				 M150.167,478.129l-1.35-3.359l-1.352,3.359H150.167z"/>
			<path style="fill:#902484;" d="M155.417,471.859h4.965c3.479,0,5.865,2.025,5.865,5.25s-2.387,5.25-5.865,5.25h-4.965V471.859z
				 M160.261,479.988c1.785,0,2.986-1.064,2.986-2.879s-1.201-2.881-2.986-2.881h-1.875v5.76H160.261z"/>
			<path style="fill:#902484;" d="M166.892,477.109c0-3.15,2.477-5.461,5.836-5.461s5.834,2.311,5.834,5.461
				s-2.475,5.459-5.834,5.459S166.892,480.26,166.892,477.109z M175.562,477.109c0-1.814-1.244-3-2.834-3s-2.836,1.186-2.836,3
				s1.246,3,2.836,3S175.562,478.924,175.562,477.109z"/>
			<path style="fill:#902484;" d="M189.36,478.594v3.766h-2.969v-3.811l-4.006-6.689h3.135l2.49,4.17l2.49-4.17h2.879
				L189.36,478.594z"/>
			<path style="fill:#902484;" d="M197.745,471.859h4.965c3.48,0,5.865,2.025,5.865,5.25s-2.385,5.25-5.865,5.25h-4.965V471.859z
				 M202.591,479.988c1.785,0,2.984-1.064,2.984-2.879s-1.199-2.881-2.984-2.881h-1.875v5.76H202.591z"/>
			<path style="fill:#902484;" d="M209.222,477.109c0-3.15,2.475-5.461,5.834-5.461c3.361,0,5.836,2.311,5.836,5.461
				s-2.475,5.459-5.836,5.459C211.696,482.568,209.222,480.26,209.222,477.109z M217.892,477.109c0-1.814-1.246-3-2.836-3
				s-2.834,1.186-2.834,3s1.244,3,2.834,3S217.892,478.924,217.892,477.109z"/>
			<path style="fill:#902484;" d="M231.556,482.359l-0.029-5.564l-2.701,4.529h-1.32l-2.684-4.381v5.416h-2.746v-10.5h2.445
				l3.689,6.061l3.6-6.061h2.445l0.031,10.5H231.556z"/>
			<path style="fill:#902484;" d="M236.011,471.859h2.969v10.5h-2.969V471.859z"/>
			<path style="fill:#902484;" d="M250.71,471.859v10.5h-2.445l-4.635-5.596v5.596h-2.91v-10.5h2.445l4.635,5.594v-5.594H250.71z"/>
			<path style="fill:#902484;" d="M259.47,476.885h2.625v4.35c-1.215,0.869-2.879,1.334-4.41,1.334
				c-3.344,0-5.789-2.264-5.789-5.459s2.445-5.461,5.85-5.461c1.965,0,3.555,0.676,4.59,1.92l-1.891,1.711
				c-0.719-0.795-1.545-1.17-2.549-1.17c-1.801,0-3,1.186-3,3c0,1.77,1.199,3,2.969,3c0.557,0,1.08-0.105,1.605-0.346V476.885z"/>
			<path style="fill:#902484;" d="M263.069,477.109c0-3.15,2.477-5.461,5.836-5.461s5.834,2.311,5.834,5.461
				s-2.475,5.459-5.834,5.459S263.069,480.26,263.069,477.109z M271.739,477.109c0-1.814-1.244-3-2.834-3s-2.836,1.186-2.836,3
				s1.246,3,2.836,3S271.739,478.924,271.739,477.109z"/>
		</g>
		<g>
			<g>
				<path style="fill:#902484;" d="M206.003,510.977h1.299v5.896h3.658v1.1h-4.957V510.977z"/>
				<path style="fill:#902484;" d="M217.239,516.883v1.09h-5.246v-6.996h5.107v1.088h-3.809v1.82h3.379v1.068h-3.379v1.93H217.239z"
					/>
				<path style="fill:#902484;" d="M218.173,514.475c0-2.09,1.6-3.598,3.748-3.598c1.139,0,2.119,0.408,2.768,1.168l-0.84,0.791
					c-0.51-0.551-1.139-0.82-1.867-0.82c-1.449,0-2.5,1.02-2.5,2.459s1.051,2.459,2.5,2.459c0.729,0,1.357-0.271,1.867-0.83
					l0.84,0.799c-0.648,0.76-1.629,1.17-2.777,1.17C219.772,518.072,218.173,516.563,218.173,514.475z"/>
				<path style="fill:#902484;" d="M232.159,510.977v6.996h-1.301v-2.998h-3.617v2.998h-1.299v-6.996h1.299v2.889h3.617v-2.889
					H232.159z"/>
				<path style="fill:#902484;" d="M239.29,516.883v1.09h-5.248v-6.996h5.107v1.088h-3.807v1.82h3.377v1.068h-3.377v1.93H239.29z"/>
				<path style="fill:#902484;" d="M240.153,517.232l0.449-1.01c0.561,0.451,1.449,0.77,2.309,0.77c1.09,0,1.549-0.389,1.549-0.908
					c0-1.51-4.156-0.52-4.156-3.119c0-1.129,0.898-2.088,2.818-2.088c0.84,0,1.719,0.219,2.328,0.619l-0.41,1.01
					c-0.629-0.371-1.318-0.551-1.928-0.551c-1.08,0-1.52,0.42-1.52,0.949c0,1.49,4.146,0.52,4.146,3.09
					c0,1.119-0.908,2.078-2.828,2.078C241.821,518.072,240.733,517.732,240.153,517.232z"/>
				<path style="fill:#902484;" d="M249.792,510.977h1.301v6.996h-1.301V510.977z"/>
				<path style="fill:#902484;" d="M259.198,510.977v6.996h-1.068l-3.859-4.738v4.738h-1.289v-6.996h1.07l3.857,4.736v-4.736
					H259.198z"/>
				<path style="fill:#902484;" d="M262.382,512.064v2.129h3.377v1.1h-3.377v2.68h-1.301v-6.996h5.107v1.088H262.382z"/>
				<path style="fill:#902484;" d="M271.698,516.354H268.2l-0.689,1.619h-1.338l3.148-6.996h1.279l3.158,6.996h-1.359
					L271.698,516.354z M271.269,515.334l-1.318-3.059l-1.309,3.059H271.269z"/>
				<path style="fill:#902484;" d="M280.868,510.977v6.996H279.8l-3.859-4.738v4.738h-1.289v-6.996h1.07l3.857,4.736v-4.736H280.868
					z"/>
				<path style="fill:#902484;" d="M284.171,512.076h-2.318v-1.1h5.936v1.1h-2.318v5.896h-1.299V512.076z"/>
				<path style="fill:#902484;" d="M288.772,510.977h1.299v6.996h-1.299V510.977z"/>
				<path style="fill:#902484;" d="M291.962,510.977h1.299v5.896h3.658v1.1h-4.957V510.977z"/>
				<path style="fill:#902484;" d="M303.198,516.883v1.09h-5.246v-6.996h5.107v1.088h-3.809v1.82h3.379v1.068h-3.379v1.93H303.198z"
					/>
				<path style="fill:#902484;" d="M304.062,517.232l0.451-1.01c0.559,0.451,1.449,0.77,2.309,0.77c1.088,0,1.549-0.389,1.549-0.908
					c0-1.51-4.158-0.52-4.158-3.119c0-1.129,0.9-2.088,2.818-2.088c0.84,0,1.719,0.219,2.328,0.619l-0.408,1.01
					c-0.631-0.371-1.32-0.551-1.93-0.551c-1.08,0-1.52,0.42-1.52,0.949c0,1.49,4.148,0.52,4.148,3.09
					c0,1.119-0.91,2.078-2.828,2.078C305.731,518.072,304.642,517.732,304.062,517.232z"/>
				<path style="fill:#902484;" d="M316.72,515.504v2.469h-1.299v-2.449l-2.748-4.547h1.389l2.049,3.408l2.068-3.408h1.279
					L316.72,515.504z"/>
			</g>
			<g>
				<path style="fill:#902484;" d="M223.052,529.232l0.451-1.01c0.559,0.451,1.449,0.77,2.309,0.77c1.088,0,1.549-0.389,1.549-0.908
					c0-1.51-4.158-0.52-4.158-3.119c0-1.129,0.9-2.088,2.818-2.088c0.84,0,1.719,0.219,2.328,0.619l-0.408,1.01
					c-0.631-0.371-1.32-0.551-1.93-0.551c-1.08,0-1.52,0.42-1.52,0.949c0,1.49,4.148,0.52,4.148,3.09
					c0,1.119-0.91,2.078-2.828,2.078C224.722,530.072,223.632,529.732,223.052,529.232z"/>
				<path style="fill:#902484;" d="M229.872,526.924v-3.947h1.299v3.896c0,1.439,0.65,2.061,1.779,2.061s1.77-0.621,1.77-2.061
					v-3.896h1.279v3.947c0,2.039-1.15,3.148-3.059,3.148C231.022,530.072,229.872,528.963,229.872,526.924z"/>
				<path style="fill:#902484;" d="M243.679,525.465c0,1.539-1.139,2.488-2.979,2.488h-1.578v2.02h-1.301v-6.996h2.879
					C242.54,522.977,243.679,523.916,243.679,525.465z M242.37,525.465c0-0.879-0.59-1.389-1.73-1.389h-1.518v2.777h1.518
					C241.78,526.854,242.37,526.344,242.37,525.465z"/>
				<path style="fill:#902484;" d="M244.981,522.977h1.301v5.896h3.656v1.1h-4.957V522.977z"/>
				<path style="fill:#902484;" d="M256.22,528.883v1.09h-5.248v-6.996h5.107v1.088h-3.807v1.82h3.377v1.068h-3.377v1.93H256.22z"/>
				<path style="fill:#902484;" d="M264.099,529.973l-0.01-4.639l-2.299,3.838h-0.58l-2.299-3.777v4.578h-1.238v-6.996h1.068
					l2.779,4.637l2.729-4.637h1.068l0.012,6.996H264.099z"/>
				<path style="fill:#902484;" d="M272.47,528.883v1.09h-5.248v-6.996h5.107v1.088h-3.807v1.82h3.377v1.068h-3.377v1.93H272.47z"/>
				<path style="fill:#902484;" d="M280.138,522.977v6.996h-1.068l-3.859-4.738v4.738h-1.289v-6.996h1.07l3.857,4.736v-4.736
					H280.138z"/>
				<path style="fill:#902484;" d="M283.44,524.076h-2.318v-1.1h5.938v1.1h-2.318v5.896h-1.301V524.076z"/>
				<path style="fill:#902484;" d="M287.442,526.475c0-2.07,1.6-3.598,3.768-3.598c2.17,0,3.768,1.518,3.768,3.598
					c0,2.078-1.598,3.598-3.768,3.598C289.042,530.072,287.442,528.543,287.442,526.475z M293.669,526.475
					c0-1.43-1.049-2.459-2.459-2.459c-1.408,0-2.459,1.029-2.459,2.459c0,1.428,1.051,2.459,2.459,2.459
					C292.62,528.934,293.669,527.902,293.669,526.475z"/>
				<path style="fill:#902484;" d="M295.772,529.232l0.449-1.01c0.561,0.451,1.449,0.77,2.309,0.77c1.09,0,1.549-0.389,1.549-0.908
					c0-1.51-4.156-0.52-4.156-3.119c0-1.129,0.898-2.088,2.818-2.088c0.84,0,1.719,0.219,2.328,0.619l-0.41,1.01
					c-0.629-0.371-1.318-0.551-1.928-0.551c-1.08,0-1.52,0.42-1.52,0.949c0,1.49,4.146,0.52,4.146,3.09
					c0,1.119-0.908,2.078-2.828,2.078C297.44,530.072,296.353,529.732,295.772,529.232z"/>
			</g>
			<g>
				<path style="fill:#902484;" d="M208.702,534.977h3.059c2.27,0,3.818,1.398,3.818,3.498c0,2.098-1.549,3.498-3.818,3.498h-3.059
					V534.977z M211.7,540.873c1.561,0,2.57-0.949,2.57-2.398s-1.01-2.398-2.57-2.398h-1.697v4.797H211.7z"/>
				<path style="fill:#902484;" d="M216.962,534.977h1.301v6.996h-1.301V534.977z"/>
				<path style="fill:#902484;" d="M225.399,540.883v1.09h-5.246v-6.996h5.107v1.088h-3.809v1.82h3.379v1.068h-3.379v1.93H225.399z"
					/>
				<path style="fill:#902484;" d="M228.271,536.076h-2.318v-1.1h5.938v1.1h-2.318v5.896h-1.301V536.076z"/>
				<path style="fill:#902484;" d="M237.069,540.354h-3.498l-0.689,1.619h-1.338l3.148-6.996h1.279l3.158,6.996h-1.359
					L237.069,540.354z M236.64,539.334l-1.318-3.059l-1.309,3.059H236.64z"/>
				<path style="fill:#902484;" d="M244.599,541.973l-1.428-2.049c-0.09,0.01-0.18,0.01-0.27,0.01h-1.58v2.039h-1.299v-6.996h2.879
					c1.838,0,2.977,0.939,2.977,2.488c0,1.059-0.539,1.838-1.488,2.209l1.609,2.299H244.599z M242.841,536.076h-1.52v2.787h1.52
					c1.139,0,1.729-0.52,1.729-1.398S243.979,536.076,242.841,536.076z"/>
				<path style="fill:#902484;" d="M247.333,534.977h1.299v6.996h-1.299V534.977z"/>
				<path style="fill:#902484;" d="M250.022,538.475c0-2.07,1.6-3.598,3.768-3.598c2.17,0,3.768,1.518,3.768,3.598
					c0,2.078-1.598,3.598-3.768,3.598C251.622,542.072,250.022,540.543,250.022,538.475z M256.249,538.475
					c0-1.43-1.049-2.459-2.459-2.459c-1.408,0-2.459,1.029-2.459,2.459c0,1.428,1.051,2.459,2.459,2.459
					C255.2,540.934,256.249,539.902,256.249,538.475z"/>
				<path style="fill:#902484;" d="M258.353,541.232l0.449-1.01c0.561,0.451,1.449,0.77,2.309,0.77c1.09,0,1.549-0.389,1.549-0.908
					c0-1.51-4.156-0.52-4.156-3.119c0-1.129,0.898-2.088,2.818-2.088c0.84,0,1.719,0.219,2.328,0.619l-0.41,1.01
					c-0.629-0.371-1.318-0.551-1.928-0.551c-1.08,0-1.52,0.42-1.52,0.949c0,1.49,4.146,0.52,4.146,3.09
					c0,1.119-0.908,2.078-2.828,2.078C260.021,542.072,258.933,541.732,258.353,541.232z"/>
				<path style="fill:#902484;" d="M272.528,540.354h-3.498l-0.689,1.619h-1.338l3.148-6.996h1.279l3.158,6.996h-1.359
					L272.528,540.354z M272.099,539.334l-1.318-3.059l-1.309,3.059H272.099z"/>
				<path style="fill:#902484;" d="M275.481,534.977h3.059c2.27,0,3.818,1.398,3.818,3.498c0,2.098-1.549,3.498-3.818,3.498h-3.059
					V534.977z M278.479,540.873c1.561,0,2.57-0.949,2.57-2.398s-1.01-2.398-2.57-2.398h-1.697v4.797H278.479z"/>
				<path style="fill:#902484;" d="M283.683,538.924v-3.947h1.299v3.896c0,1.439,0.648,2.061,1.779,2.061
					c1.129,0,1.768-0.621,1.768-2.061v-3.896h1.279v3.947c0,2.039-1.148,3.148-3.057,3.148
					C284.831,542.072,283.683,540.963,283.683,538.924z"/>
				<path style="fill:#902484;" d="M291.632,534.977h1.299v5.896h3.658v1.1h-4.957V534.977z"/>
				<path style="fill:#902484;" d="M298.399,536.076h-2.318v-1.1h5.938v1.1H299.7v5.896h-1.301V536.076z"/>
				<path style="fill:#902484;" d="M302.411,538.475c0-2.07,1.6-3.598,3.77-3.598c2.168,0,3.768,1.518,3.768,3.598
					c0,2.078-1.6,3.598-3.768,3.598C304.011,542.072,302.411,540.543,302.411,538.475z M308.638,538.475
					c0-1.43-1.049-2.459-2.457-2.459c-1.41,0-2.459,1.029-2.459,2.459c0,1.428,1.049,2.459,2.459,2.459
					C307.589,540.934,308.638,539.902,308.638,538.475z"/>
				<path style="fill:#902484;" d="M310.741,541.232l0.451-1.01c0.559,0.451,1.449,0.77,2.309,0.77c1.088,0,1.549-0.389,1.549-0.908
					c0-1.51-4.158-0.52-4.158-3.119c0-1.129,0.9-2.088,2.818-2.088c0.84,0,1.719,0.219,2.328,0.619l-0.408,1.01
					c-0.631-0.371-1.32-0.551-1.93-0.551c-1.08,0-1.52,0.42-1.52,0.949c0,1.49,4.148,0.52,4.148,3.09
					c0,1.119-0.91,2.078-2.828,2.078C312.411,542.072,311.321,541.732,310.741,541.232z"/>
			</g>
		</g>
	</g>
	
		<linearGradient id="SVGID_10_" gradientUnits="userSpaceOnUse" x1="-4487.6572" y1="684.4609" x2="-4486.5928" y2="684.4609" gradientTransform="matrix(279 0 0 -279 1252095.625 191295.25)">
		<stop  offset="0" style="stop-color:#116BAC"/>
		<stop  offset="1" style="stop-color:#902484"/>
	</linearGradient>
	<polyline style="fill:url(#SVGID_10_);" points="39.231,329.646 336.231,329.646 336.231,331.646 39.231,331.646 	"/>
	
		<linearGradient id="SVGID_12_" gradientUnits="userSpaceOnUse" x1="-4487.6572" y1="684.0098" x2="-4486.5928" y2="684.0098" gradientTransform="matrix(279 0 0 -279 1252095.625 191295.25)">
		<stop  offset="0" style="stop-color:#116BAC"/>
		<stop  offset="1" style="stop-color:#902484"/>
	</linearGradient>
	<polyline style="fill:url(#SVGID_12_);" points="39.231,455.646 336.231,455.646 336.231,457.646 39.231,457.646 	"/>
</g>
</svg>
