<?xml version="1.0" encoding="iso-8859-1"?>
<!-- Generator: Adobe Illustrator 16.0.0, SVG Export Plug-In . SVG Version: 6.00 Build 0)  -->
<!DOCTYPE svg PUBLIC "-//W3C//DTD SVG 1.1//EN" "http://www.w3.org/Graphics/SVG/1.1/DTD/svg11.dtd">
<svg version="1.1" id="Capa_1" xmlns="http://www.w3.org/2000/svg" xmlns:xlink="http://www.w3.org/1999/xlink" x="0px" y="0px"
	 width="375px" height="685px" viewBox="0 0 375 685" style="enable-background:new 0 0 375 685;" xml:space="preserve">
<g>
	<defs>
		<rect id="SVGID_39_" width="375" height="685"/>
	</defs>
	<clipPath id="SVGID_2_">
		<use xlink:href="#SVGID_39_"  style="overflow:visible;"/>
	</clipPath>
	
		<radialGradient id="SVGID_3_" cx="-5142.1436" cy="684.498" r="1.0005" gradientTransform="matrix(276.1001 0 0 -276.1001 1419933.75 189332.5313)" gradientUnits="userSpaceOnUse">
		<stop  offset="0" style="stop-color:#FFFFFF"/>
		<stop  offset="1" style="stop-color:#FFFFFF"/>
	</radialGradient>
	<rect style="clip-path:url(#SVGID_2_);fill:url(#SVGID_3_);" width="375" height="685"/>
</g>
<g>
	<defs>
		<rect id="SVGID_42_" width="375" height="685"/>
	</defs>
	<clipPath id="SVGID_5_">
		<use xlink:href="#SVGID_42_"  style="overflow:visible;"/>
	</clipPath>
	<path style="clip-path:url(#SVGID_5_);fill:#EC983D;" d="M197.726,28.205h10.438c2.736,0,5.17,0.565,7.292,1.696
		c2.123,1.131,3.774,2.695,4.956,4.692c1.18,1.997,1.771,4.264,1.771,6.802s-0.591,4.805-1.771,6.802
		c-1.182,1.997-2.833,3.561-4.956,4.691c-2.122,1.131-4.556,1.696-7.292,1.696h-10.438V28.205z M208.014,52.851
		c2.436,0,4.584-0.483,6.445-1.451c1.857-0.967,3.291-2.318,4.295-4.051c1.004-1.734,1.507-3.718,1.507-5.954
		s-0.503-4.221-1.507-5.954c-1.004-1.734-2.438-3.084-4.295-4.051c-1.861-0.967-4.01-1.451-6.445-1.451h-8.366v22.912H208.014z"/>
	<rect x="243.926" y="28.206" style="clip-path:url(#SVGID_5_);fill:#EC983D;" width="1.922" height="26.379"/>
	<path style="clip-path:url(#SVGID_5_);fill:#EC983D;" d="M286.434,47.161h-15.3l-3.353,7.423h-2.072l12.133-26.378h1.922
		l12.135,26.378h-2.072L286.434,47.161z M285.718,45.54l-6.934-15.224l-6.896,15.224H285.718z"/>
	<path style="clip-path:url(#SVGID_5_);fill:#EC983D;" d="M312.867,53.774c-1.745-0.665-3.107-1.526-4.087-2.581l0.866-1.432
		c0.93,0.98,2.18,1.778,3.75,2.393c1.569,0.616,3.221,0.923,4.955,0.923c2.512,0,4.409-0.477,5.691-1.432
		c1.28-0.954,1.921-2.198,1.921-3.73c0-1.181-0.339-2.123-1.018-2.827c-0.679-0.703-1.521-1.243-2.524-1.62
		c-1.004-0.378-2.362-0.766-4.07-1.169c-1.934-0.477-3.486-0.942-4.654-1.394c-1.168-0.452-2.162-1.149-2.977-2.091
		c-0.816-0.943-1.225-2.205-1.225-3.788c0-1.281,0.338-2.455,1.019-3.523c0.677-1.068,1.714-1.916,3.107-2.544
		c1.394-0.627,3.134-0.942,5.22-0.942c1.456,0,2.889,0.214,4.297,0.641c1.406,0.427,2.625,1.005,3.654,1.733l-0.716,1.545
		c-1.056-0.728-2.218-1.281-3.486-1.658s-2.519-0.565-3.749-0.565c-2.438,0-4.284,0.49-5.541,1.47
		c-1.255,0.979-1.883,2.248-1.883,3.806c0,1.181,0.339,2.123,1.018,2.826c0.678,0.704,1.52,1.244,2.524,1.62
		c1.005,0.377,2.374,0.779,4.107,1.206c1.935,0.478,3.479,0.943,4.636,1.395c1.155,0.452,2.142,1.137,2.958,2.053
		c0.816,0.918,1.224,2.155,1.224,3.712c0,1.282-0.345,2.45-1.035,3.505c-0.691,1.055-1.752,1.897-3.185,2.525
		s-3.19,0.942-5.275,0.942C316.455,54.773,314.613,54.441,312.867,53.774"/>
	<path style="clip-path:url(#SVGID_5_);fill:#8D2D81;" d="M199.873,89.111c-2.041-0.592-3.681-1.362-4.917-2.311l2.172-4.817
		c1.185,0.868,2.593,1.566,4.226,2.093c1.631,0.527,3.264,0.789,4.898,0.789c1.814,0,3.157-0.269,4.026-0.809
		c0.868-0.539,1.304-1.257,1.304-2.152c0-0.658-0.258-1.205-0.771-1.639c-0.513-0.434-1.171-0.783-1.974-1.047
		c-0.804-0.262-1.89-0.552-3.259-0.868c-2.105-0.5-3.83-1.001-5.173-1.501s-2.495-1.303-3.456-2.409s-1.44-2.58-1.44-4.423
		c0-1.606,0.435-3.061,1.303-4.364c0.868-1.303,2.179-2.336,3.93-3.1c1.75-0.763,3.89-1.145,6.417-1.145
		c1.764,0,3.488,0.211,5.174,0.632c1.684,0.421,3.158,1.027,4.423,1.816l-1.975,4.858c-2.554-1.448-5.108-2.172-7.663-2.172
		c-1.789,0-3.111,0.29-3.969,0.868c-0.854,0.58-1.283,1.343-1.283,2.291c0,0.948,0.494,1.653,1.482,2.113
		c0.986,0.461,2.494,0.915,4.521,1.362c2.106,0.5,3.83,1.001,5.174,1.501c1.342,0.5,2.492,1.29,3.455,2.369
		c0.961,1.08,1.441,2.542,1.441,4.384c0,1.579-0.441,3.021-1.323,4.324c-0.882,1.304-2.205,2.337-3.969,3.1
		c-1.765,0.763-3.909,1.146-6.437,1.146C204.024,90,201.912,89.703,199.873,89.111"/>
	<path style="clip-path:url(#SVGID_5_);fill:#8D2D81;" d="M246.334,77.658c0.895,1.172,1.342,2.614,1.342,4.325
		c0,2.422-0.941,4.285-2.824,5.588c-1.883,1.303-4.627,1.954-8.234,1.954h-14.295V61.881h13.507c3.368,0,5.956,0.646,7.759,1.935
		c1.805,1.291,2.705,3.041,2.705,5.253c0,1.343-0.322,2.541-0.967,3.594c-0.646,1.053-1.547,1.882-2.705,2.488
		C244.201,75.651,245.438,76.487,246.334,77.658 M228.68,66.699v6.517h6.358c1.579,0,2.778-0.277,3.593-0.83
		c0.817-0.552,1.226-1.368,1.226-2.448c0-1.079-0.408-1.889-1.226-2.429c-0.814-0.539-2.014-0.81-3.593-0.81H228.68z
		 M239.955,83.878c0.855-0.553,1.284-1.408,1.284-2.567c0-2.29-1.699-3.435-5.095-3.435h-7.465v6.832h7.465
		C237.829,84.708,239.1,84.432,239.955,83.878"/>
	<path style="clip-path:url(#SVGID_5_);fill:#8D2D81;" d="M270.876,63.106c1.804,0.817,3.192,1.975,4.167,3.475
		c0.973,1.501,1.461,3.278,1.461,5.332c0,2.027-0.488,3.798-1.461,5.312c-0.975,1.515-2.363,2.673-4.167,3.475
		c-1.803,0.804-3.929,1.205-6.376,1.205h-5.569v7.622h-6.398V61.882H264.5C266.947,61.882,269.073,62.291,270.876,63.106
		 M268.526,75.447c1.001-0.83,1.501-2.007,1.501-3.534c0-1.554-0.5-2.745-1.501-3.574c-1-0.83-2.462-1.245-4.383-1.245h-5.213v9.597
		h5.213C266.064,76.691,267.526,76.277,268.526,75.447"/>
	<path style="clip-path:url(#SVGID_5_);fill:#8D2D81;" d="M297.592,83.603h-12.834l-2.45,5.923h-6.554l12.32-27.644h6.318
		l12.361,27.644h-6.714L297.592,83.603z M295.578,78.745l-4.384-10.583l-4.384,10.583H295.578z"/>
	<polygon style="clip-path:url(#SVGID_5_);fill:#8D2D81;" points="320.732,79.732 320.732,89.525 314.336,89.525 314.336,79.653 
		303.634,61.881 310.426,61.881 317.811,74.165 325.195,61.881 331.475,61.881 	"/>
	<path style="clip-path:url(#SVGID_5_);fill:#E41632;" d="M78.843,53.92c0.661-0.184,1.347-0.263,1.979-0.263
		c0.607,0,0.871,0.211,0.871,0.659v1.822c0.978-1.637,2.719-2.614,4.621-2.614c3.404,0,6.068,2.587,6.068,6.837
		c0,4.804-3.324,7.892-7.02,7.892c-1.373,0-2.719-0.448-3.67-1.346v6.385h-2.006c-0.607,0-0.845-0.211-0.845-0.66V53.92z
		 M81.693,59.305v5.411c0.846,0.818,1.979,1.109,3.168,1.109c2.666,0,4.619-2.217,4.619-5.358c0-2.772-1.398-4.54-3.828-4.54
		C84.043,55.927,82.486,56.956,81.693,59.305"/>
	<path style="clip-path:url(#SVGID_5_);fill:#E41632;" d="M105.133,55.002c0,0.159-0.053,0.317-0.158,0.501
		c-0.291,0.45-0.765,0.872-1.266,1.162c-0.688-0.502-1.585-0.712-2.403-0.712c-1.688,0-2.851,1.002-3.3,2.955v9.028H96
		c-0.607,0-0.846-0.211-0.846-0.66V53.919c0.662-0.184,1.348-0.264,1.98-0.264c0.607,0,0.871,0.212,0.871,0.66v1.558
		c0.792-1.372,2.217-2.349,4.064-2.349c0.977,0,1.717,0.185,2.271,0.475C104.923,54.29,105.133,54.58,105.133,55.002"/>
	<path style="clip-path:url(#SVGID_5_);fill:#E41632;" d="M117.459,66.273c0,0.845-1.689,1.98-4.328,1.98
		c-4.118,0-7.075-3.062-7.075-7.312c0-4.672,3.222-7.417,7.075-7.417c3.378,0,5.648,2.217,5.648,5.121
		c0,0.871-0.185,1.689-0.449,2.244c-0.422,0.87-0.977,1.161-2.086,1.161h-7.258c0.316,2.534,2.164,3.774,4.645,3.774
		c1.242,0,2.324-0.237,3.433-0.792C117.275,65.297,117.459,65.852,117.459,66.273 M109.013,59.674h6.784
		c0.132-0.264,0.184-0.581,0.184-0.871c0-1.742-1.055-2.851-3.009-2.851C110.808,55.952,109.328,57.353,109.013,59.674"/>
	<path style="clip-path:url(#SVGID_5_);fill:#E41632;" d="M133.798,61.998c0,3.907-2.481,6.255-6.229,6.255
		s-6.229-2.348-6.229-6.255v-8.077c0.66-0.185,1.347-0.264,1.979-0.264c0.607,0,0.871,0.211,0.871,0.66v7.866
		c0,2.296,1.479,3.669,3.379,3.669s3.379-1.373,3.379-3.669v-8.342h2.006c0.607,0,0.845,0.212,0.845,0.66V61.998z"/>
	<path style="clip-path:url(#SVGID_5_);fill:#E41632;" d="M137.994,67.937c-0.607,0-0.844-0.211-0.844-0.66V53.92
		c0.658-0.186,1.345-0.264,1.979-0.264c0.608,0,0.871,0.211,0.871,0.66v1.082c1.03-1.056,2.771-1.874,4.514-1.874
		c3.195,0,5.043,2.27,5.043,6.255v4.646c0,1.003,0.262,1.399,0.896,1.399h0.66c0.105,0.317,0.158,0.633,0.158,1.004
		c0,0.58-0.738,1.293-1.979,1.293c-1.295,0-2.588-0.739-2.588-3.432v-5.2c0-2.323-0.95-3.537-3.009-3.537
		c-1.294,0-2.772,0.554-3.696,1.425v10.559H137.994z"/>
	<path style="clip-path:url(#SVGID_5_);fill:#E41632;" d="M153.276,50.146c0-1.03,0.687-1.663,1.61-1.663
		c0.897,0,1.717,0.686,1.717,1.768c0,1.029-0.66,1.663-1.637,1.663C154.096,51.914,153.276,51.228,153.276,50.146 M153.567,53.92
		c0.66-0.185,1.347-0.264,1.979-0.264c0.606,0,0.871,0.211,0.871,0.66v10.11c0,1.003,0.265,1.399,0.898,1.399h0.659
		c0.106,0.317,0.157,0.634,0.157,1.003c0,0.581-0.738,1.293-1.979,1.293c-1.293,0-2.586-0.739-2.586-3.431V53.92z"/>
	<path style="clip-path:url(#SVGID_5_);fill:#E41632;" d="M172.148,57.061c0,0.264-0.184,0.528-0.525,0.739
		c-0.502,0.317-1.188,0.555-1.902,0.608c-0.369-1.426-1.451-2.455-3.272-2.455c-2.138,0-3.774,1.689-3.774,4.434
		c0,3.564,2.428,5.438,5.199,5.438c1.24,0,2.377-0.238,3.485-0.792c0.21,0.317,0.396,0.845,0.396,1.241
		c0,0.844-1.715,1.979-4.303,1.979c-3.906,0-7.681-2.824-7.681-7.787c0-4.329,2.851-6.942,6.81-6.942
		c2.639,0,4.592,1.214,5.385,2.798C172.098,56.586,172.148,56.824,172.148,57.061"/>
	<path style="clip-path:url(#SVGID_5_);fill:#EB691C;" d="M55.21,49.401c1.562,1.575,2.455,3.268,2.868,5.216
		c0.072,0.338,0.104,0.561-0.421,0.516c-2.53-0.219-4.636-2.419-4.698-4.984c-0.018-0.649,0.005-1.3-0.012-1.949
		c-0.008-0.333,0.111-0.359,0.367-0.218C54.08,48.401,54.734,48.965,55.21,49.401"/>
	<path style="clip-path:url(#SVGID_5_);fill:#F9B424;" d="M63.262,58.449c-1.01,1.073-2.275,1.667-3.691,1.981
		c-0.38,0.085-0.523,0.035-0.436-0.444c0.535-2.888,2.766-5.161,5.633-5.674c0.511-0.092,0.545-0.064,0.442,0.433
		C64.918,56.166,64.323,57.432,63.262,58.449"/>
	<path style="clip-path:url(#SVGID_5_);fill:#EB691C;" d="M62.127,49.433c-1.57,1.567-2.471,3.256-2.895,5.202
		c-0.072,0.339-0.105,0.561,0.418,0.518c2.533-0.206,4.647-2.396,4.725-4.961c0.02-0.65,0-1.3,0.021-1.949
		c0.01-0.333-0.109-0.359-0.367-0.22C63.262,48.438,62.605,49,62.127,49.433"/>
	<path style="clip-path:url(#SVGID_5_);fill:#E41632;" d="M57.885,50.146c0.166-0.303,0.186-0.599,0.179-0.889
		c-0.019-0.806-0.089-1.634-0.54-2.376c-0.739-1.214-2.561-1.496-3.574-0.54c-0.232,0.219-0.279,0.363,0.053,0.535
		c1.491,0.768,2.695,1.818,3.709,3.156C57.737,50.067,57.822,50.213,57.885,50.146"/>
	<path style="clip-path:url(#SVGID_5_);fill:#E41632;" d="M59.449,50.264c-0.173-0.298-0.2-0.594-0.202-0.884
		c-0.003-0.806,0.046-1.636,0.478-2.389c0.707-1.234,2.519-1.564,3.559-0.635c0.236,0.212,0.289,0.356-0.039,0.535
		c-1.47,0.808-2.646,1.89-3.623,3.254C59.596,50.181,59.516,50.33,59.449,50.264"/>
	<path style="clip-path:url(#SVGID_5_);fill:#E41632;" d="M51.262,52.683c-0.332-0.091-0.561-0.283-0.764-0.489
		c-0.566-0.574-1.111-1.2-1.332-2.041c-0.359-1.374,0.703-2.88,2.096-2.944c0.318-0.015,0.455,0.051,0.348,0.409
		c-0.484,1.607-0.564,3.202-0.307,4.86C51.309,52.521,51.355,52.683,51.262,52.683"/>
	<path style="clip-path:url(#SVGID_5_);fill:#E41632;" d="M65.962,52.736c0.334-0.086,0.563-0.274,0.771-0.478
		c0.576-0.564,1.131-1.183,1.362-2.02c0.382-1.369-0.659-2.891-2.051-2.976c-0.317-0.02-0.456,0.045-0.353,0.404
		c0.459,1.614,0.518,3.21,0.233,4.865C65.918,52.574,65.87,52.736,65.962,52.736"/>
	<path style="clip-path:url(#SVGID_5_);fill:#EB691C;" d="M47.158,57.453c1.574,1.562,3.268,2.455,5.215,2.869
		c0.339,0.071,0.562,0.103,0.517-0.422c-0.22-2.53-2.419-4.635-4.983-4.699c-0.649-0.017-1.301,0.006-1.949-0.011
		c-0.334-0.008-0.359,0.111-0.219,0.367C46.158,56.323,46.722,56.977,47.158,57.453"/>
	<path style="clip-path:url(#SVGID_5_);fill:#F9B424;" d="M56.206,65.504c1.073-1.009,1.667-2.275,1.981-3.691
		c0.084-0.38,0.035-0.523-0.444-0.435c-2.888,0.534-5.161,2.766-5.675,5.633c-0.092,0.51-0.063,0.545,0.434,0.442
		C53.924,67.16,55.189,66.566,56.206,65.504"/>
	<path style="clip-path:url(#SVGID_5_);fill:#EB691C;" d="M47.189,64.37c1.566-1.57,3.256-2.471,5.202-2.894
		c0.338-0.073,0.562-0.106,0.519,0.418c-0.207,2.533-2.396,4.647-4.963,4.724c-0.648,0.02-1.299,0-1.947,0.021
		c-0.334,0.01-0.359-0.109-0.221-0.366C46.194,65.505,46.756,64.848,47.189,64.37"/>
	<path style="clip-path:url(#SVGID_5_);fill:#E41632;" d="M47.902,60.128c-0.303,0.166-0.599,0.185-0.889,0.178
		c-0.805-0.018-1.634-0.089-2.376-0.54c-1.214-0.739-1.496-2.56-0.54-3.574c0.219-0.232,0.363-0.279,0.535,0.053
		c0.768,1.491,1.818,2.695,3.156,3.708C47.824,59.98,47.97,60.065,47.902,60.128"/>
	<path style="clip-path:url(#SVGID_5_);fill:#E41632;" d="M48.021,61.693c-0.298-0.173-0.595-0.201-0.884-0.203
		c-0.807-0.003-1.637,0.046-2.389,0.477c-1.234,0.707-1.564,2.52-0.636,3.559c0.212,0.237,0.356,0.289,0.535-0.039
		c0.808-1.47,1.89-2.645,3.253-3.623C47.938,61.839,48.086,61.758,48.021,61.693"/>
	<path style="clip-path:url(#SVGID_5_);fill:#E41632;" d="M50.439,53.506c-0.092-0.333-0.283-0.56-0.488-0.764
		c-0.574-0.567-1.201-1.113-2.041-1.333c-1.375-0.359-2.881,0.703-2.945,2.096c-0.014,0.318,0.051,0.456,0.41,0.348
		c1.605-0.485,3.201-0.566,4.859-0.307C50.277,53.552,50.439,53.598,50.439,53.506"/>
	<path style="clip-path:url(#SVGID_5_);fill:#E41632;" d="M50.492,68.205c-0.086,0.334-0.273,0.564-0.478,0.771
		c-0.565,0.575-1.183,1.131-2.021,1.362c-1.369,0.381-2.891-0.66-2.977-2.051c-0.02-0.317,0.046-0.456,0.405-0.353
		c1.614,0.46,3.21,0.517,4.864,0.234C50.33,68.161,50.492,68.113,50.492,68.205"/>
	<path style="clip-path:url(#SVGID_5_);fill:#EB691C;" d="M62.072,72.368c-1.563-1.575-2.455-3.268-2.869-5.216
		c-0.07-0.338-0.104-0.561,0.422-0.516c2.53,0.22,4.635,2.419,4.699,4.984c0.018,0.649-0.006,1.3,0.012,1.949
		c0.008,0.333-0.111,0.359-0.367,0.218C63.201,73.368,62.549,72.804,62.072,72.368"/>
	<path style="clip-path:url(#SVGID_5_);fill:#EB691C;" d="M55.155,72.336c1.569-1.567,2.472-3.256,2.894-5.202
		c0.073-0.339,0.106-0.561-0.418-0.518c-2.533,0.206-4.647,2.396-4.724,4.961c-0.021,0.65,0,1.3-0.021,1.949
		c-0.01,0.333,0.108,0.359,0.365,0.22C54.021,73.331,54.678,72.769,55.155,72.336"/>
	<path style="clip-path:url(#SVGID_5_);fill:#E41632;" d="M59.396,71.623c-0.166,0.303-0.185,0.599-0.179,0.889
		c0.019,0.806,0.091,1.634,0.541,2.376c0.739,1.214,2.56,1.496,3.575,0.539c0.23-0.218,0.277-0.363-0.055-0.534
		c-1.49-0.768-2.695-1.818-3.709-3.156C59.545,71.702,59.46,71.556,59.396,71.623"/>
	<path style="clip-path:url(#SVGID_5_);fill:#E41632;" d="M57.832,71.505c0.173,0.298,0.201,0.594,0.203,0.884
		c0.002,0.806-0.047,1.636-0.477,2.389c-0.707,1.234-2.521,1.564-3.561,0.635c-0.236-0.212-0.289-0.356,0.04-0.535
		c1.47-0.808,2.646-1.89,3.622-3.254C57.686,71.588,57.768,71.44,57.832,71.505"/>
	<path style="clip-path:url(#SVGID_5_);fill:#E41632;" d="M66.02,69.086c0.332,0.091,0.561,0.283,0.764,0.489
		c0.566,0.574,1.112,1.2,1.332,2.041c0.36,1.374-0.701,2.88-2.096,2.944c-0.318,0.015-0.455-0.051-0.348-0.409
		c0.486-1.607,0.566-3.202,0.308-4.86C65.973,69.247,65.928,69.085,66.02,69.086"/>
	<path style="clip-path:url(#SVGID_5_);fill:#E41632;" d="M51.32,69.033c-0.334,0.087-0.564,0.274-0.771,0.478
		c-0.574,0.564-1.131,1.183-1.361,2.02c-0.381,1.369,0.658,2.891,2.05,2.976c0.317,0.02,0.457-0.045,0.354-0.404
		c-0.461-1.614-0.518-3.21-0.235-4.864C51.364,69.195,51.412,69.033,51.32,69.033"/>
	<path style="clip-path:url(#SVGID_5_);fill:#EB691C;" d="M70.125,64.315c-1.576-1.562-3.269-2.455-5.217-2.869
		c-0.338-0.071-0.561-0.103-0.516,0.421c0.219,2.531,2.419,4.636,4.984,4.7c0.648,0.017,1.299-0.006,1.949,0.011
		c0.332,0.008,0.357-0.111,0.217-0.367C71.125,65.445,70.56,64.792,70.125,64.315"/>
	<path style="clip-path:url(#SVGID_5_);fill:#EB691C;" d="M70.093,57.398c-1.567,1.57-3.256,2.471-5.202,2.894
		c-0.34,0.073-0.561,0.106-0.518-0.418c0.205-2.533,2.395-4.647,4.961-4.724c0.65-0.02,1.3,0,1.949-0.021
		c0.332-0.01,0.358,0.109,0.219,0.366C71.088,56.264,70.525,56.92,70.093,57.398"/>
	<path style="clip-path:url(#SVGID_5_);fill:#E41632;" d="M69.379,61.64c0.303-0.166,0.6-0.185,0.891-0.179
		c0.805,0.019,1.633,0.09,2.375,0.541c1.213,0.739,1.495,2.56,0.539,3.574c-0.218,0.232-0.363,0.279-0.533-0.053
		c-0.77-1.491-1.819-2.695-3.158-3.708C69.459,61.788,69.313,61.703,69.379,61.64"/>
	<path style="clip-path:url(#SVGID_5_);fill:#E41632;" d="M69.262,60.075c0.297,0.173,0.594,0.201,0.883,0.203
		c0.807,0.003,1.637-0.046,2.391-0.477c1.232-0.707,1.564-2.52,0.635-3.559c-0.213-0.237-0.355-0.29-0.535,0.039
		c-0.809,1.47-1.891,2.645-3.254,3.622C69.344,59.929,69.196,60.01,69.262,60.075"/>
	<path style="clip-path:url(#SVGID_5_);fill:#E41632;" d="M66.842,68.263c0.092,0.333,0.285,0.56,0.49,0.764
		c0.573,0.567,1.2,1.113,2.04,1.332c1.374,0.36,2.88-0.702,2.944-2.095c0.015-0.318-0.051-0.456-0.409-0.348
		c-1.606,0.485-3.201,0.566-4.86,0.307C67.004,68.217,66.842,68.171,66.842,68.263"/>
	<path style="clip-path:url(#SVGID_5_);fill:#E41632;" d="M66.789,53.563c0.086-0.334,0.274-0.564,0.479-0.771
		c0.564-0.575,1.184-1.131,2.02-1.362c1.369-0.381,2.892,0.659,2.977,2.051c0.02,0.317-0.046,0.456-0.404,0.353
		c-1.613-0.46-3.211-0.517-4.865-0.234C66.951,53.607,66.789,53.655,66.789,53.563"/>
	<path style="clip-path:url(#SVGID_5_);fill:#F9B424;" d="M61.077,65.522c-1.067-1.014-1.657-2.284-1.964-3.7
		c-0.083-0.382-0.031-0.524,0.447-0.433c2.885,0.549,5.146,2.791,5.646,5.659c0.089,0.511,0.061,0.546-0.436,0.441
		C63.352,67.189,62.089,66.59,61.077,65.522"/>
	<path style="clip-path:url(#SVGID_5_);fill:#F9B424;" d="M56.205,56.247c1.068,1.014,1.656,2.284,1.963,3.7
		c0.084,0.382,0.032,0.524-0.445,0.433c-2.886-0.549-5.147-2.791-5.647-5.659c-0.089-0.512-0.06-0.546,0.435-0.441
		C53.93,54.58,55.193,55.179,56.205,56.247"/>
	
		<linearGradient id="SVGID_7_" gradientUnits="userSpaceOnUse" x1="-5145.6519" y1="684.5" x2="-5144.6523" y2="684.5" gradientTransform="matrix(339.932 0 0 -339.932 1749189.25 233070.5625)">
		<stop  offset="0" style="stop-color:#116BAC"/>
		<stop  offset="1" style="stop-color:#902484"/>
	</linearGradient>
	<path style="clip-path:url(#SVGID_5_);fill:url(#SVGID_7_);" d="M322.5,662v4.5h-270C33.445,666.497,18.003,651.056,18,632V143
		c0.003-19.055,15.445-34.497,34.5-34.5h270c19.055,0.003,34.497,15.445,34.5,34.5v489c-0.003,19.055-15.445,34.497-34.5,34.5V662
		v-4.5c14.081-0.025,25.475-11.419,25.5-25.5V143c-0.025-14.081-11.419-25.475-25.5-25.5h-270C38.418,117.525,27.025,128.919,27,143
		v489c0.025,14.081,11.418,25.475,25.5,25.5h270V662z"/>
</g>
<g>
	<g>
		<path style="fill:#116BAC;" d="M46.691,231.5h6.621c4.642,0,7.822,2.7,7.822,7.001c0,4.302-3.181,7.002-7.822,7.002h-6.621V231.5z
			 M53.153,242.342c2.38,0,3.981-1.42,3.981-3.841c0-2.42-1.602-3.841-3.981-3.841h-2.501v7.682H53.153z"/>
		<path style="fill:#116BAC;" d="M74.273,242.442v3.061H63.031V231.5h10.982v3.061h-7.061v2.36h6.221v2.961h-6.221v2.561H74.273z"/>
		<path style="fill:#116BAC;" d="M76.291,231.5h3.961v10.862h6.682v3.141H76.291V231.5z"/>
		<path style="fill:#116BAC;" d="M104.613,231.5v2.48l-4.941,11.522h-4.32l4.721-10.862h-3.681v2.16h-3.381V231.5H104.613z"/>
		<path style="fill:#116BAC;" d="M121.432,242.782h-5.921l-1.101,2.721h-4.041l6.182-14.003h3.901l6.201,14.003h-4.121
			L121.432,242.782z M120.271,239.861l-1.8-4.48l-1.8,4.48H120.271z"/>
		<path style="fill:#116BAC;" d="M127.59,231.5h3.961v10.862h6.682v3.141H127.59V231.5z"/>
		<path style="fill:#116BAC;" d="M155.352,242.362v3.141h-10.902v-2.48l5.24-4.901c1.121-1.04,1.281-1.68,1.281-2.26
			c0-0.9-0.6-1.44-1.801-1.44c-1.02,0-1.939,0.46-2.5,1.36l-2.941-1.641c1.061-1.761,3.041-2.921,5.803-2.921
			c3.221,0,5.439,1.66,5.439,4.261c0,1.36-0.379,2.601-2.379,4.441l-2.641,2.44H155.352z"/>
		<path style="fill:#116BAC;" d="M169.531,242.822h-2.08v2.681h-3.861v-2.681h-7.4v-2.58l6.281-8.742h4.1l-5.701,8.182h2.842v-2.381
			h3.74v2.381h2.08V242.822z"/>
		<path style="fill:#116BAC;" d="M176.51,231.5h6.621c4.641,0,7.822,2.7,7.822,7.001c0,4.302-3.182,7.002-7.822,7.002h-6.621V231.5z
			 M182.971,242.342c2.381,0,3.98-1.42,3.98-3.841c0-2.42-1.6-3.841-3.98-3.841h-2.5v7.682H182.971z"/>
		<path style="fill:#116BAC;" d="M204.092,242.442v3.061H192.85V231.5h10.982v3.061h-7.063v2.36h6.221v2.961h-6.221v2.561H204.092z"
			/>
		<path style="fill:#116BAC;" d="M211.748,231.5h6.621c4.643,0,7.822,2.7,7.822,7.001c0,4.302-3.18,7.002-7.822,7.002h-6.621V231.5z
			 M218.209,242.342c2.381,0,3.982-1.42,3.982-3.841c0-2.42-1.602-3.841-3.982-3.841h-2.5v7.682H218.209z"/>
		<path style="fill:#116BAC;" d="M228.088,231.5h3.961v14.003h-3.961V231.5z"/>
		<path style="fill:#116BAC;" d="M233.967,238.501c0-4.261,3.262-7.281,7.703-7.281c2.58,0,4.66,0.94,6.021,2.641l-2.521,2.28
			c-0.881-1.06-1.961-1.64-3.301-1.64c-2.301,0-3.9,1.6-3.9,4c0,2.401,1.6,4.001,3.9,4.001c1.34,0,2.42-0.58,3.301-1.64l2.521,2.28
			c-1.361,1.7-3.441,2.641-6.021,2.641C237.229,245.783,233.967,242.763,233.967,238.501z"/>
		<path style="fill:#116BAC;" d="M249.268,231.5h3.961v14.003h-3.961V231.5z"/>
		<path style="fill:#116BAC;" d="M267.109,242.442v3.061h-11.242V231.5h10.982v3.061h-7.061v2.36h6.221v2.961h-6.221v2.561H267.109z
			"/>
		<path style="fill:#116BAC;" d="M281.771,245.503l-0.041-7.422l-3.6,6.042h-1.762l-3.58-5.842v7.222h-3.66V231.5h3.26l4.922,8.082
			l4.801-8.082h3.26l0.041,14.003H281.771z"/>
		<path style="fill:#116BAC;" d="M301.352,241.662c0,2.421-2.002,3.841-5.762,3.841h-7.563V231.5h7.162c3.68,0,5.48,1.5,5.48,3.661
			c0,1.34-0.68,2.42-1.879,3.04C300.371,238.762,301.352,239.962,301.352,241.662z M291.949,234.36v2.701h2.721
			c1.32,0,2-0.461,2-1.36c0-0.881-0.68-1.341-2-1.341H291.949z M297.35,241.222c0-0.96-0.721-1.42-2.08-1.42h-3.32v2.841h3.32
			C296.629,242.643,297.35,242.183,297.35,241.222z"/>
		<path style="fill:#116BAC;" d="M309.35,241.782h-2.16v3.721h-3.961V231.5h6.4c3.82,0,6.223,1.98,6.223,5.181
			c0,2.061-1.002,3.581-2.742,4.421l3.021,4.401h-4.24L309.35,241.782z M309.389,234.621h-2.199v4.101h2.199
			c1.641,0,2.461-0.761,2.461-2.041C311.85,235.381,311.029,234.621,309.389,234.621z"/>
		<path style="fill:#116BAC;" d="M329.09,242.442v3.061h-11.242V231.5h10.982v3.061h-7.063v2.36h6.221v2.961h-6.221v2.561H329.09z"
			/>
	</g>
	<g>
		<g>
			<path style="fill:#116BAC;" d="M135.756,453.04h-9.146v-5.39h24.908v5.39h-9.146v23.193h-6.615V453.04z"/>
			<path style="fill:#116BAC;" d="M153.27,461.942c0-8.493,6.614-14.781,15.639-14.781c8.983,0,15.639,6.247,15.639,14.781
				c0,8.533-6.655,14.781-15.639,14.781C159.884,476.724,153.27,470.436,153.27,461.942z M177.851,461.942
				c0-5.431-3.839-9.146-8.942-9.146c-5.104,0-8.942,3.716-8.942,9.146s3.838,9.146,8.942,9.146
				C174.012,471.089,177.851,467.373,177.851,461.942z"/>
			<path style="fill:#116BAC;" d="M189.522,447.65h12.985c9.351,0,15.761,5.635,15.761,14.292c0,8.656-6.41,14.291-15.761,14.291
				h-12.985V447.65z M202.181,470.803c5.676,0,9.392-3.39,9.392-8.86c0-5.472-3.716-8.861-9.392-8.861h-6.043v17.722H202.181z"/>
			<path style="fill:#116BAC;" d="M221.448,461.942c0-8.493,6.614-14.781,15.639-14.781c8.983,0,15.639,6.247,15.639,14.781
				c0,8.533-6.655,14.781-15.639,14.781C228.063,476.724,221.448,470.436,221.448,461.942z M246.029,461.942
				c0-5.431-3.839-9.146-8.942-9.146c-5.104,0-8.942,3.716-8.942,9.146s3.838,9.146,8.942,9.146
				C242.19,471.089,246.029,467.373,246.029,461.942z"/>
			<path style="fill:#116BAC;" d="M53.43,517.559l3.675-4.41c1.552,2.083,3.267,3.145,5.309,3.145c2.654,0,4.042-1.593,4.042-4.737
				v-13.597H56.41v-5.309h16.619v18.538c0,7.064-3.553,10.535-10.29,10.535C58.901,521.724,55.512,520.253,53.43,517.559z"/>
			<path style="fill:#116BAC;" d="M79.313,508.657V492.65h6.614v15.762c0,5.431,2.368,7.677,6.37,7.677
				c4.042,0,6.37-2.246,6.37-7.677V492.65h6.533v16.007c0,8.411-4.818,13.066-12.944,13.066S79.313,517.068,79.313,508.657z"/>
			<path style="fill:#116BAC;" d="M131.043,506.493h6.043v11.596c-3.145,2.369-7.473,3.635-11.556,3.635
				c-8.983,0-15.598-6.166-15.598-14.781c0-8.616,6.614-14.781,15.72-14.781c5.022,0,9.188,1.715,11.965,4.94l-4.247,3.92
				c-2.082-2.205-4.491-3.226-7.391-3.226c-5.554,0-9.351,3.716-9.351,9.146c0,5.349,3.797,9.146,9.269,9.146
				c1.797,0,3.471-0.327,5.146-1.226V506.493z"/>
			<path style="fill:#116BAC;" d="M142.961,508.657V492.65h6.614v15.762c0,5.431,2.368,7.677,6.37,7.677
				c4.042,0,6.37-2.246,6.37-7.677V492.65h6.533v16.007c0,8.411-4.818,13.066-12.944,13.066S142.961,517.068,142.961,508.657z"/>
			<path style="fill:#116BAC;" d="M197.508,515.925v5.309h-22.132V492.65h21.601v5.309H181.95v6.206h13.271v5.146H181.95v6.614
				H197.508z"/>
			<path style="fill:#116BAC;" d="M208.69,498.04h-9.146v-5.39h24.908v5.39h-9.146v23.193h-6.615V498.04z"/>
			<path style="fill:#116BAC;" d="M250.132,515.925v5.309H228V492.65h21.601v5.309h-15.026v6.206h13.271v5.146h-13.271v6.614
				H250.132z"/>
			<path style="fill:#116BAC;" d="M273.605,521.233l-5.513-7.962h-0.326h-5.758v7.962h-6.615V492.65h12.373
				c7.636,0,12.413,3.961,12.413,10.372c0,4.287-2.164,7.432-5.88,9.023l6.41,9.188H273.605z M267.398,498.04h-5.39v9.964h5.39
				c4.043,0,6.084-1.879,6.084-4.981C273.482,499.878,271.441,498.04,267.398,498.04z"/>
			<path style="fill:#116BAC;" d="M290.504,484.443h6.859l-7.391,5.88h-4.981L290.504,484.443z M285.399,492.65h6.615v28.583h-6.615
				V492.65z"/>
			<path style="fill:#116BAC;" d="M317.614,515.108h-13.271l-2.531,6.125h-6.778l12.739-28.583h6.533l12.781,28.583h-6.942
				L317.614,515.108z M315.532,510.086l-4.533-10.943l-4.532,10.943H315.532z"/>
		</g>
		<g>
			<g>
				<g>
					<path style="fill:#116BAC;" d="M140.365,388.71c0,20.517-15.43,39.229-50.063,39.229c-15.922,0-32.828-3.939-44.481-11.326
						l11.653-24.457c9.356,6.238,20.846,9.521,31.843,9.521c10.998,0,18.384-4.432,18.384-12.146c0-7.059-4.76-11.654-22.323-11.654
						H54.192l5.744-67.133h73.206v25.113H86.855L85.378,352.6h7.715C127.069,352.6,140.365,368.356,140.365,388.71z"/>
					<path style="fill:#116BAC;" d="M149.719,368.192c0-37.916,21.338-59.747,50.719-59.747c29.217,0,50.555,21.831,50.555,59.747
						s-21.338,59.747-50.555,59.747C171.057,427.939,149.719,406.108,149.719,368.192z M218.328,368.192
						c0-24.128-7.55-33.156-17.891-33.156c-10.505,0-18.056,9.028-18.056,33.156s7.551,33.156,18.056,33.156
						C210.778,401.349,218.328,392.32,218.328,368.192z"/>
				</g>
				<g>
					<path style="fill:#116BAC;" d="M254.806,337.507c0-9.375,5.098-15.459,12.416-15.459c7.319,0,12.417,6.085,12.417,15.459
						c0,9.374-5.098,15.459-12.417,15.459C259.903,352.967,254.806,346.881,254.806,337.507z M277.419,337.507
						c0-8.305-4.112-13.403-10.197-13.403c-6.002,0-10.196,5.098-10.196,13.403s4.194,13.403,10.196,13.403
						C273.307,350.91,277.419,345.813,277.419,337.507z M302.416,322.295h2.55l-39.306,57.561h-2.55L302.416,322.295z
						 M288.438,364.643c0-9.373,5.098-15.459,12.416-15.459c7.319,0,12.499,6.086,12.499,15.459c0,9.375-5.18,15.459-12.499,15.459
						C293.535,380.102,288.438,374.018,288.438,364.643z M311.051,364.643c0-8.305-4.194-13.402-10.197-13.402
						c-6.002,0-10.113,5.098-10.113,13.402c0,8.306,4.111,13.404,10.113,13.404C306.856,378.047,311.051,372.948,311.051,364.643z"
						/>
				</g>
				<g>
					<path style="fill:#116BAC;" d="M268.796,396.555v27.059h-1.167v-5.178c-1.422,3.281-4.449,5.287-8.169,5.287
						c-5.251,0-9.263-3.938-9.263-9.591c0-5.652,4.012-9.591,9.263-9.591c3.647,0,6.71,1.969,8.133,5.215v-13.201H268.796z
						 M267.593,414.132c0-5.032-3.465-8.46-8.096-8.46c-4.632,0-8.097,3.428-8.097,8.46s3.465,8.497,8.097,8.497
						C264.128,422.629,267.593,419.164,267.593,414.132z"/>
					<path style="fill:#116BAC;" d="M274.738,414.132c0-5.652,3.975-9.591,9.409-9.591c2.844,0,5.396,1.094,7.002,3.246
						l-0.912,0.766c-1.422-1.97-3.646-2.881-6.09-2.881c-4.705,0-8.206,3.428-8.206,8.46c0,5.069,3.501,8.497,8.206,8.497
						c2.443,0,4.668-0.912,6.09-2.881l0.912,0.729c-1.605,2.151-4.158,3.245-7.002,3.245
						C278.713,423.723,274.738,419.785,274.738,414.132z"/>
					<path style="fill:#116BAC;" d="M306.025,422.41c-0.911,0.875-2.406,1.313-3.792,1.313c-3.137,0-4.814-1.896-4.814-4.85v-13.129
						h-3.573v-1.058h3.573v-4.157h1.204v4.157h6.235v1.058h-6.235v12.946c0,2.553,1.276,3.976,3.72,3.976
						c1.167,0,2.261-0.401,3.063-1.131L306.025,422.41z"/>
					<path style="fill:#116BAC;" d="M308.505,414.132c0-5.616,3.975-9.591,9.3-9.591c5.36,0,9.299,3.975,9.299,9.591
						s-3.938,9.591-9.299,9.591C312.479,423.723,308.505,419.748,308.505,414.132z M325.9,414.132c0-5.032-3.465-8.46-8.096-8.46
						c-4.632,0-8.097,3.428-8.097,8.46s3.465,8.497,8.097,8.497C322.436,422.629,325.9,419.164,325.9,414.132z"/>
				</g>
			</g>
			<g>
				<g>
					<path style="fill:#116BAC;" d="M62.596,283.048v17.688h-3.285v-7.581h-9.147v7.581h-3.285v-17.688h3.285v7.303h9.147v-7.303
						H62.596z"/>
					<path style="fill:#116BAC;" d="M79.066,296.643h-8.845l-1.743,4.094h-3.386l7.959-17.688h3.234l7.985,17.688h-3.437
						L79.066,296.643z M77.979,294.065l-3.336-7.732l-3.31,7.732H77.979z"/>
					<path style="fill:#116BAC;" d="M85.278,298.866l1.137-2.552c1.415,1.137,3.664,1.945,5.837,1.945
						c2.754,0,3.917-0.985,3.917-2.299c0-3.815-10.512-1.314-10.512-7.884c0-2.855,2.274-5.281,7.126-5.281
						c2.122,0,4.346,0.556,5.887,1.566l-1.035,2.552c-1.593-0.935-3.336-1.39-4.877-1.39c-2.729,0-3.841,1.062-3.841,2.401
						c0,3.765,10.486,1.314,10.486,7.808c0,2.83-2.3,5.256-7.151,5.256C89.498,300.989,86.743,300.13,85.278,298.866z"/>
					<path style="fill:#116BAC;" d="M106.5,285.828h-5.861v-2.78h15.009v2.78h-5.862v14.908H106.5V285.828z"/>
					<path style="fill:#116BAC;" d="M129.846,296.643h-8.845l-1.743,4.094h-3.386l7.959-17.688h3.234l7.985,17.688h-3.437
						L129.846,296.643z M128.759,294.065l-3.336-7.732l-3.31,7.732H128.759z"/>
				</g>
			</g>
		</g>
		<g>
			<g>
				<path style="fill:#116BAC;" d="M51.511,542.412v0.994h-5.806v-8h5.646v0.994h-4.503v2.457h4.012v0.972h-4.012v2.583H51.511z"/>
				<path style="fill:#116BAC;" d="M58.418,543.406l-2.399-3.303l-2.366,3.303h-1.314l3.006-4.103l-2.823-3.897h1.304l2.239,3.074
					l2.218-3.074h1.245l-2.822,3.862l3.028,4.138H58.418z"/>
				<path style="fill:#116BAC;" d="M60.457,539.406c0-2.366,1.806-4.092,4.24-4.092c1.234,0,2.309,0.423,3.04,1.246l-0.743,0.72
					c-0.617-0.651-1.371-0.948-2.252-0.948c-1.806,0-3.143,1.303-3.143,3.074s1.337,3.074,3.143,3.074
					c0.881,0,1.635-0.309,2.252-0.96l0.743,0.72c-0.731,0.823-1.806,1.258-3.052,1.258
					C62.263,543.498,60.457,541.771,60.457,539.406z"/>
				<path style="fill:#116BAC;" d="M69.398,535.406h1.143v7.006h4.332v0.994h-5.475V535.406z"/>
				<path style="fill:#116BAC;" d="M76.146,539.955v-4.549h1.143v4.503c0,1.771,0.812,2.571,2.251,2.571
					c1.44,0,2.264-0.8,2.264-2.571v-4.503h1.108v4.549c0,2.319-1.269,3.543-3.383,3.543
					C77.425,543.498,76.146,542.274,76.146,539.955z"/>
				<path style="fill:#116BAC;" d="M88.344,540.641v2.766h-1.131v-2.789l-3.178-5.211h1.223l2.561,4.217l2.571-4.217h1.132
					L88.344,540.641z"/>
				<path style="fill:#116BAC;" d="M98.509,542.412v0.994h-5.806v-8h5.646v0.994h-4.503v2.457h4.012v0.972h-4.012v2.583H98.509z"/>
				<path style="fill:#116BAC;" d="M110.366,541.246c0,1.371-1.04,2.16-3.063,2.16h-3.817v-8h3.589c1.84,0,2.868,0.777,2.868,2.068
					c0,0.869-0.445,1.475-1.074,1.783C109.772,539.509,110.366,540.184,110.366,541.246z M104.629,536.332v2.56h2.343
					c1.166,0,1.829-0.434,1.829-1.279c0-0.847-0.663-1.28-1.829-1.28H104.629z M109.212,541.154c0-0.925-0.686-1.337-1.954-1.337
					h-2.629v2.663h2.629C108.526,542.48,109.212,542.08,109.212,541.154z"/>
				<path style="fill:#116BAC;" d="M117.262,541.406h-4.251l-0.88,2h-1.178l3.623-8h1.132l3.634,8h-1.199L117.262,541.406z
					 M116.862,540.492l-1.726-3.92l-1.727,3.92H116.862z"/>
				<path style="fill:#116BAC;" d="M125.907,543.406l-1.726-2.457c-0.16,0.012-0.332,0.022-0.503,0.022h-1.978v2.435h-1.143v-8h3.12
					c2.08,0,3.337,1.051,3.337,2.788c0,1.234-0.64,2.126-1.76,2.526l1.897,2.686H125.907z M125.873,538.194
					c0-1.143-0.766-1.794-2.229-1.794h-1.943v3.6h1.943C125.107,540,125.873,539.338,125.873,538.194z"/>
				<path style="fill:#116BAC;" d="M135.774,541.246c0,1.371-1.04,2.16-3.063,2.16h-3.817v-8h3.589c1.84,0,2.868,0.777,2.868,2.068
					c0,0.869-0.445,1.475-1.074,1.783C135.181,539.509,135.774,540.184,135.774,541.246z M130.037,536.332v2.56h2.343
					c1.166,0,1.829-0.434,1.829-1.279c0-0.847-0.663-1.28-1.829-1.28H130.037z M134.62,541.154c0-0.925-0.686-1.337-1.954-1.337
					h-2.629v2.663h2.629C133.935,542.48,134.62,542.08,134.62,541.154z"/>
				<path style="fill:#116BAC;" d="M137.574,535.406h1.143v8h-1.143V535.406z"/>
				<path style="fill:#116BAC;" d="M146.947,542.412v0.994h-5.806v-8h5.646v0.994h-4.503v2.457h4.012v0.972h-4.012v2.583H146.947z"
					/>
				<path style="fill:#116BAC;" d="M149.684,542.687c0,0.229-0.046,0.399-0.194,0.822l-0.537,1.589h-0.721l0.423-1.703
					c-0.285-0.103-0.479-0.365-0.479-0.708c0-0.457,0.331-0.777,0.766-0.777S149.684,542.24,149.684,542.687z"/>
				<path style="fill:#116BAC;" d="M154.543,535.406h1.143v7.006h4.332v0.994h-5.475V535.406z"/>
				<path style="fill:#116BAC;" d="M160.707,539.406c0-2.343,1.806-4.092,4.263-4.092c2.435,0,4.24,1.737,4.24,4.092
					s-1.806,4.092-4.24,4.092C162.513,543.498,160.707,541.749,160.707,539.406z M168.067,539.406c0-1.771-1.326-3.074-3.098-3.074
					c-1.794,0-3.12,1.303-3.12,3.074s1.326,3.074,3.12,3.074C166.741,542.48,168.067,541.178,168.067,539.406z"/>
				<path style="fill:#116BAC;" d="M170.987,535.406h1.143v7.006h4.332v0.994h-5.475V535.406z"/>
				<path style="fill:#116BAC;" d="M178.66,542.687c0,0.229-0.046,0.399-0.194,0.822l-0.537,1.589h-0.721l0.423-1.703
					c-0.285-0.103-0.479-0.365-0.479-0.708c0-0.457,0.331-0.777,0.766-0.777S178.66,542.24,178.66,542.687z"/>
				<path style="fill:#116BAC;" d="M190.399,535.406v8h-1.143v-3.565h-4.595v3.565h-1.143v-8h1.143v3.439h4.595v-3.439H190.399z"/>
				<path style="fill:#116BAC;" d="M192.177,539.406c0-2.343,1.806-4.092,4.263-4.092c2.435,0,4.24,1.737,4.24,4.092
					s-1.806,4.092-4.24,4.092C193.982,543.498,192.177,541.749,192.177,539.406z M199.537,539.406c0-1.771-1.326-3.074-3.098-3.074
					c-1.794,0-3.12,1.303-3.12,3.074s1.326,3.074,3.12,3.074C198.211,542.48,199.537,541.178,199.537,539.406z"/>
				<path style="fill:#116BAC;" d="M204.045,536.4h-2.743v-0.994h6.617v0.994h-2.743v7.006h-1.131V536.4z"/>
				<path style="fill:#116BAC;" d="M220.494,535.406l-2.674,8h-1.2l-2.183-6.389l-2.184,6.389h-1.223l-2.674-8h1.177l2.16,6.503
					l2.251-6.503h1.052l2.206,6.537l2.205-6.537H220.494z"/>
				<path style="fill:#116BAC;" d="M228.97,535.406v8h-1.143v-3.565h-4.595v3.565h-1.143v-8h1.143v3.439h4.595v-3.439H228.97z"/>
				<path style="fill:#116BAC;" d="M237.204,542.412v0.994h-5.806v-8h5.646v0.994h-4.503v2.457h4.012v0.972h-4.012v2.583H237.204z"
					/>
				<path style="fill:#116BAC;" d="M244.889,542.412v0.994h-5.806v-8h5.646v0.994h-4.503v2.457h4.012v0.972h-4.012v2.583H244.889z"
					/>
				<path style="fill:#116BAC;" d="M246.768,535.406h1.143v7.006h4.332v0.994h-5.475V535.406z"/>
				<path style="fill:#116BAC;" d="M252.851,542.492l0.423-0.892c0.594,0.537,1.611,0.926,2.64,0.926
					c1.383,0,1.978-0.537,1.978-1.234c0-1.954-4.846-0.72-4.846-3.691c0-1.234,0.96-2.286,3.063-2.286
					c0.938,0,1.909,0.252,2.571,0.709l-0.377,0.914c-0.697-0.445-1.485-0.651-2.194-0.651c-1.359,0-1.942,0.571-1.942,1.269
					c0,1.954,4.846,0.731,4.846,3.669c0,1.223-0.983,2.274-3.098,2.274C254.69,543.498,253.49,543.086,252.851,542.492z"/>
				<path style="fill:#116BAC;" d="M266.868,540.641v2.766h-1.131v-2.789l-3.178-5.211h1.223l2.561,4.217l2.571-4.217h1.132
					L266.868,540.641z"/>
				<path style="fill:#116BAC;" d="M280.782,538.194c0,1.737-1.257,2.789-3.337,2.789h-1.978v2.423h-1.143v-8h3.12
					C279.525,535.406,280.782,536.457,280.782,538.194z M279.64,538.194c0-1.143-0.766-1.794-2.229-1.794h-1.943v3.589h1.943
					C278.874,539.989,279.64,539.338,279.64,538.194z"/>
				<path style="fill:#116BAC;" d="M282.604,535.406h1.143v7.006h4.332v0.994h-5.475V535.406z"/>
				<path style="fill:#116BAC;" d="M294.517,541.406h-4.251l-0.88,2h-1.178l3.623-8h1.132l3.634,8h-1.199L294.517,541.406z
					 M294.117,540.492l-1.726-3.92l-1.727,3.92H294.117z"/>
				<path style="fill:#116BAC;" d="M300.875,540.641v2.766h-1.131v-2.789l-3.178-5.211h1.223l2.561,4.217l2.571-4.217h1.132
					L300.875,540.641z"/>
				<path style="fill:#116BAC;" d="M305.234,535.406h3.371c2.571,0,4.32,1.623,4.32,4s-1.749,4-4.32,4h-3.371V535.406z
					 M308.537,542.412c1.978,0,3.246-1.212,3.246-3.006s-1.269-3.006-3.246-3.006h-2.16v6.012H308.537z"/>
				<path style="fill:#116BAC;" d="M314.051,539.406c0-2.343,1.806-4.092,4.263-4.092c2.435,0,4.24,1.737,4.24,4.092
					s-1.806,4.092-4.24,4.092C315.856,543.498,314.051,541.749,314.051,539.406z M321.411,539.406c0-1.771-1.326-3.074-3.098-3.074
					c-1.794,0-3.12,1.303-3.12,3.074s1.326,3.074,3.12,3.074C320.085,542.48,321.411,541.178,321.411,539.406z"/>
				<path style="fill:#116BAC;" d="M331.211,535.406v8h-1.143v-3.565h-4.595v3.565h-1.143v-8h1.143v3.439h4.595v-3.439H331.211z"/>
			</g>
		</g>
	</g>
</g>
</svg>
