<svg xmlns="http://www.w3.org/2000/svg" width="127.998" height="109.725" viewBox="0 0 127.998 109.725">
  <g id="warning" transform="translate(0 -36.548)">
    <g id="Grupo_2" data-name="Grupo 2" transform="translate(0 36.548)">
      <g id="Grupo_1" data-name="Grupo 1" transform="translate(0 0)">
        <path id="Trazado_1" data-name="Trazado 1" d="M125.493,121.024,78.075,44.4a16.547,16.547,0,0,0-28.151,0v0L2.5,121.026A16.547,16.547,0,0,0,16.58,146.273h94.84a16.547,16.547,0,0,0,14.074-25.249Zm-8.353,11.891a6.47,6.47,0,0,1-5.72,3.36H16.58a6.549,6.549,0,0,1-5.572-9.99l47.42-76.631v0a6.549,6.549,0,0,1,11.143,0l47.418,76.629A6.469,6.469,0,0,1,117.14,132.915Z" transform="translate(0 -36.548)" fill="#e6a850"/>
        <rect id="Rect치ngulo_1" data-name="Rect치ngulo 1" width="9.998" height="9.998" transform="translate(59.001 80.981)" fill="#e6a850"/>
        <rect id="Rect치ngulo_2" data-name="Rect치ngulo 2" width="9.998" height="39.241" transform="translate(59.001 31.743)" fill="#e6a850"/>
      </g>
    </g>
  </g>
</svg>
